<?xml version="1.0" encoding="UTF-8" standalone="no"?>
<!-- Created with Inkscape (http://www.inkscape.org/) -->
<svg
   xmlns:dc="http://purl.org/dc/elements/1.1/"
   xmlns:cc="http://web.resource.org/cc/"
   xmlns:rdf="http://www.w3.org/1999/02/22-rdf-syntax-ns#"
   xmlns:svg="http://www.w3.org/2000/svg"
   xmlns="http://www.w3.org/2000/svg"
   xmlns:xlink="http://www.w3.org/1999/xlink"
   xmlns:sodipodi="http://sodipodi.sourceforge.net/DTD/sodipodi-0.dtd"
   xmlns:inkscape="http://www.inkscape.org/namespaces/inkscape"
   width="185.48297"
   height="185.64355"
   id="svg2"
   inkscape:label="Pozadí"
   sodipodi:version="0.32"
   inkscape:version="0.45"
   version="1.0"
   sodipodi:docbase="C:\u\Pavel\Java\ProjectUJO\src\org\ujoframework"
   sodipodi:docname="Logo.svg"
   inkscape:output_extension="org.inkscape.output.svg.inkscape"
   inkscape:export-filename="C:\temp\UjoIcons.png"
   inkscape:export-xdpi="59.869999"
   inkscape:export-ydpi="59.869999"
   sodipodi:modified="true">
  <defs
     id="defs3">
    <linearGradient
       id="linearGradient3172">
      <stop
         style="stop-color:#ffffff;stop-opacity:0;"
         offset="0"
         id="stop3174" />
      <stop
         style="stop-color:#ffffff;stop-opacity:1;"
         offset="0.476082"
         id="stop3184" />
      <stop
         id="stop3180"
         offset="1"
         style="stop-color:#ffffff;stop-opacity:0;" />
    </linearGradient>
    <linearGradient
       id="linearGradient37949">
      <stop
         style="stop-color:#b2b2de;stop-opacity:1;"
         offset="0"
         id="stop37951" />
      <stop
         id="stop37957"
         offset="0.5"
         style="stop-color:#fefefe;stop-opacity:1;" />
      <stop
         style="stop-color:#f5f5f5;stop-opacity:1;"
         offset="0.75"
         id="stop37959" />
      <stop
         style="stop-color:#bebee2;stop-opacity:1;"
         offset="1"
         id="stop37953" />
    </linearGradient>
    <linearGradient
       inkscape:collect="always"
       xlink:href="#linearGradient37949"
       id="linearGradient37955"
       x1="828.46588"
       y1="518.64441"
       x2="877.82886"
       y2="660.05359"
       gradientUnits="userSpaceOnUse" />
    <linearGradient
       inkscape:collect="always"
       xlink:href="#linearGradient37949"
       id="linearGradient39073"
       gradientUnits="userSpaceOnUse"
       x1="828.46588"
       y1="518.64441"
       x2="877.82886"
       y2="660.05359" />
    <linearGradient
       inkscape:collect="always"
       xlink:href="#linearGradient37949"
       id="linearGradient39079"
       gradientUnits="userSpaceOnUse"
       x1="828.46588"
       y1="518.64441"
       x2="877.82886"
       y2="660.05359"
       gradientTransform="translate(16.44531,-9.6496383)" />
    <linearGradient
       inkscape:collect="always"
       xlink:href="#linearGradient37949"
       id="linearGradient21873"
       gradientUnits="userSpaceOnUse"
       gradientTransform="translate(-213.00162,-245.52974)"
       x1="828.46588"
       y1="518.64441"
       x2="877.82886"
       y2="660.05359" />
    <linearGradient
       inkscape:collect="always"
       xlink:href="#linearGradient37949"
       id="linearGradient24840"
       gradientUnits="userSpaceOnUse"
       gradientTransform="translate(266.3189,-23.671802)"
       x1="828.46588"
       y1="518.64441"
       x2="877.82886"
       y2="660.05359" />
    <filter
       inkscape:collect="always"
       x="-0.026253695"
       width="1.0525074"
       y="-0.17457171"
       height="1.3491434"
       id="filter14809">
      <feGaussianBlur
         inkscape:collect="always"
         stdDeviation="1.3245809"
         id="feGaussianBlur14811" />
    </filter>
    <filter
       inkscape:collect="always"
       x="-0.020196466"
       width="1.0403929"
       y="-0.16550966"
       height="1.3310193"
       id="filter16358">
      <feGaussianBlur
         inkscape:collect="always"
         stdDeviation="1.0117658"
         id="feGaussianBlur16360" />
    </filter>
    <filter
       inkscape:collect="always"
       x="-0.025489372"
       width="1.0509787"
       y="-0.11150806"
       height="1.2230161"
       id="filter18741">
      <feGaussianBlur
         inkscape:collect="always"
         stdDeviation="1.1743202"
         id="feGaussianBlur18743" />
    </filter>
  </defs>
  <sodipodi:namedview
     id="base"
     pagecolor="#ffffff"
     bordercolor="#666666"
     borderopacity="1.0"
     inkscape:pageopacity="0"
     inkscape:pageshadow="2"
     inkscape:zoom="2.6434104"
     inkscape:cx="92.741486"
     inkscape:cy="92.821777"
     inkscape:document-units="px"
     inkscape:current-layer="layer1"
     width="1052.3622px"
     height="744.09448px"
     inkscape:window-width="1440"
     inkscape:window-height="874"
     inkscape:window-x="0"
     inkscape:window-y="0"
     showborder="false" />
  <metadata
     id="metadata6">
    <rdf:RDF>
      <cc:Work
         rdf:about="">
        <dc:format>image/svg+xml</dc:format>
        <dc:type
           rdf:resource="http://purl.org/dc/dcmitype/StillImage" />
        <dc:title>Logo of UJO Framework</dc:title>
        <dc:date>2007/10/06</dc:date>
        <dc:creator>
          <cc:Agent>
            <dc:title>Paul Ponec</dc:title>
          </cc:Agent>
        </dc:creator>
        <dc:rights>
          <cc:Agent>
            <dc:title>GPL</dc:title>
          </cc:Agent>
        </dc:rights>
        <dc:source>http://ujoframework.org/</dc:source>
        <dc:coverage>UJO Framework logo</dc:coverage>
        <cc:license
           rdf:resource="http://creativecommons.org/licenses/GPL/2.0/" />
      </cc:Work>
      <cc:License
         rdf:about="http://creativecommons.org/licenses/GPL/2.0/">
        <cc:permits
           rdf:resource="http://web.resource.org/cc/Reproduction" />
        <cc:permits
           rdf:resource="http://web.resource.org/cc/Distribution" />
        <cc:requires
           rdf:resource="http://web.resource.org/cc/Notice" />
        <cc:permits
           rdf:resource="http://web.resource.org/cc/DerivativeWorks" />
        <cc:requires
           rdf:resource="http://web.resource.org/cc/ShareAlike" />
        <cc:requires
           rdf:resource="http://web.resource.org/cc/SourceCode" />
      </cc:License>
    </rdf:RDF>
  </metadata>
  <g
     inkscape:label="Vrstva 1"
     inkscape:groupmode="layer"
     id="layer1"
     transform="translate(-817.54117,-466.85737)">
    <rect
       style="fill:#ffffff;fill-opacity:1;fill-rule:nonzero;stroke:#2b537c;stroke-width:1.694;stroke-linecap:round;stroke-linejoin:round;stroke-miterlimit:4;stroke-dasharray:none;stroke-dashoffset:0;stroke-opacity:1"
       id="rect39059"
       width="183.38857"
       height="183.54915"
       x="818.58838"
       y="467.90457"
       ry="18.052267"
       inkscape:export-filename="C:\temp\ujo256.png"
       inkscape:export-xdpi="124.22"
       inkscape:export-ydpi="124.22" />
    <path
       style="fill:url(#linearGradient39079);fill-opacity:1;fill-rule:evenodd;stroke:#000000;stroke-width:1px;stroke-linecap:butt;stroke-linejoin:miter;stroke-opacity:1"
       d="M 839.28236,542.98383 C 864.25196,542.72563 902.56766,542.99577 927.57036,542.7324 C 935.43096,564.95572 928.45646,614.79553 928.26356,638.92064 C 905.33216,642.51343 883.94076,636.66331 846.53766,639.96848 C 832.47066,620.44313 837.24506,564.45882 839.28236,542.98383 z "
       id="path39063"
       sodipodi:nodetypes="ccccc"
       inkscape:export-filename="C:\temp\ujo256.png"
       inkscape:export-xdpi="124"
       inkscape:export-ydpi="124" />
    <path
       sodipodi:nodetypes="cc"
       id="path19722"
       d="M 918.81421,552.48986 C 922.55347,576.21116 918.32293,626.20625 918.511,633.0806"
       style="fill:none;fill-opacity:1;fill-rule:nonzero;stroke:#b2afff;stroke-width:1.56581843;stroke-linecap:round;stroke-linejoin:bevel;stroke-miterlimit:4;stroke-dasharray:1.56581835, 3.1316367;stroke-dashoffset:0;stroke-opacity:1" />
    <path
       style="fill:none;fill-opacity:1;fill-rule:nonzero;stroke:#b2afff;stroke-width:1.52460194;stroke-linecap:round;stroke-linejoin:bevel;stroke-miterlimit:4;stroke-dasharray:1.52460196, 3.0492039;stroke-dashoffset:0;stroke-opacity:1"
       d="M 852.82744,633.46831 C 874.47081,629.99605 899.86589,636.81753 920.90155,632.35317"
       id="path19716"
       sodipodi:nodetypes="cc" />
    <path
       style="opacity:1;fill:none;fill-opacity:1;fill-rule:nonzero;stroke:#b2afff;stroke-width:1.56581843;stroke-linecap:round;stroke-linejoin:bevel;stroke-miterlimit:4;stroke-dasharray:1.56581835, 3.1316367;stroke-dashoffset:0;stroke-opacity:1"
       d="M 847.55186,551.4477 L 918.98944,549.42803"
       id="path18745" />
    <path
       style="fill:#7f8dc7;fill-opacity:1;fill-rule:evenodd;stroke:#000000;stroke-width:0.5;stroke-linecap:butt;stroke-linejoin:miter;stroke-miterlimit:4;stroke-dasharray:none;stroke-opacity:1"
       d="M 947.04106,578.26654 C 958.91266,578.281 973.47206,570.00368 983.73986,559.92864 C 970.17706,551.11051 961.41156,545.30669 945.89796,545.4802 C 946.61616,551.27466 948.84316,552.61392 949.26686,555.40054 C 942.24156,556.42988 937.87616,554.07825 930.19596,553.53931 C 922.51586,553.00037 876.98524,554.14588 876.41076,561.60701 C 875.29782,574.52176 932.66096,568.20541 948.30156,567.67352 C 948.81196,572.14695 946.06486,568.24401 947.04106,578.26654 z "
       id="path39065"
       sodipodi:nodetypes="cccczccc"
       inkscape:export-filename="C:\temp\ujo256.png"
       inkscape:export-xdpi="124"
       inkscape:export-ydpi="124" />
    <path
       style="fill:#3ccd3c;fill-opacity:1;fill-rule:evenodd;stroke:#000000;stroke-width:0.5;stroke-linecap:butt;stroke-linejoin:miter;stroke-miterlimit:4;stroke-dasharray:none;stroke-opacity:1"
       d="M 947.04106,636.25233 C 958.91266,636.26679 975.22926,628.69236 984.09136,617.21154 C 970.35276,609.44775 960.00576,602.94103 944.49216,603.11454 C 944.85886,608.55755 948.09386,608.1945 948.21246,613.38633 C 944.17456,614.94284 937.87616,612.06404 930.19596,611.5251 C 922.51586,610.98616 877.08274,610.85323 876.41076,620.6588 C 889.80762,635.71217 933.36386,626.1912 949.00446,625.65931 C 950.21776,630.65991 946.76776,629.21709 947.04106,636.25233 z "
       id="path39067"
       sodipodi:nodetypes="cccczccc"
       inkscape:export-filename="C:\temp\ujo256.png"
       inkscape:export-xdpi="124"
       inkscape:export-ydpi="124" />
    <path
       style="fill:#dc6e6e;fill-opacity:1;fill-rule:evenodd;stroke:#000000;stroke-width:0.5;stroke-linecap:butt;stroke-linejoin:miter;stroke-miterlimit:4;stroke-dasharray:none;stroke-opacity:1"
       d="M 903.44666,574.11763 C 891.57506,574.10317 875.43416,582.55622 866.39646,593.33414 C 880.13496,601.09793 889.77906,606.90176 905.29276,606.72825 C 904.92596,602.86674 902.39396,601.82401 902.27526,596.98363 C 906.31326,595.42712 912.61166,598.30592 920.29176,598.84486 C 927.97196,599.3838 976.8572,599.91134 975.77648,590.09739 C 949.8977,579.7044 917.12396,584.17876 901.48336,584.71065 C 900.79716,579.71005 902.84136,580.80142 903.44666,574.11763 z "
       id="path39069"
       sodipodi:nodetypes="cccczccc"
       inkscape:export-filename="C:\temp\ujo256.png"
       inkscape:export-xdpi="124"
       inkscape:export-ydpi="124" />
    <path
       style="fill:#4a4aa3;fill-opacity:1;fill-rule:evenodd;stroke:#47485b;stroke-width:1.206568;stroke-linecap:butt;stroke-linejoin:bevel;stroke-miterlimit:4;stroke-dasharray:none;stroke-opacity:1"
       d="M 850.00934,479.80383 C 844.69468,493.18375 836.69012,503.4437 840.79092,517.62377 C 846.15241,529.57254 858.73257,533.42889 872.05733,532.08697 C 878.26622,531.32542 882.52906,527.35987 884.25641,521.90609 C 886.84715,507.29546 882.39613,494.43115 883.02792,479.77902 C 879.59547,478.80241 873.37434,478.98417 870.94259,479.88769 C 877.60952,485.92096 872.06644,501.12741 865.6657,500.943 C 857.77554,500.71569 853.46838,494.12929 863.90748,479.7552 C 862.59131,478.86803 852.58046,478.54003 850.00934,479.80383 z M 890.50686,479.567 C 901.17886,479.9677 912.38214,480.30905 923.11727,478.86335 C 925.98594,478.47703 932.6024,478.52054 928.51592,483.53795 C 921.46196,495.03879 924.07749,507.04161 928.22829,518.68395 C 929.72076,524.08819 923.52278,528.2252 918.81511,530.44979 C 913.3956,533.01084 906.32392,532.89344 900.52169,531.42674 C 894.97687,530.02511 889.11425,524.13877 888.85993,517.44518 C 888.63696,511.57704 895.36508,502.44076 910.05374,509.77726 C 912.19331,511.17771 915.29792,517.17508 914.88521,516.19755 C 912.90917,511.51675 913.12821,504.5054 914.45589,498.6872 C 915.04054,496.12532 915.1707,495.44907 916.46684,491.02096 C 911.55354,494.35813 905.96973,495.39532 898.02622,495.89805 C 886.39599,496.62683 884.11926,484.37353 890.50686,479.567 z M 928.61135,499.34824 C 928.71887,511.75674 935.78507,525.86805 948.62461,531.4884 C 954.64444,532.99142 961.51483,532.40488 967.17668,530.09672 C 978.62413,523.34915 983.68128,507.64316 979.38356,496.23112 C 974.73199,482.32639 963.32805,481.07422 949.6443,479.26915 C 937.91734,477.72224 929.19729,489.54834 928.61135,499.34824 z M 966.1238,517.45286 C 970.40424,513.80472 971.35279,503.27778 967.49812,499.45865 C 947.54296,479.68726 958.2613,524.154 966.1238,517.45286 z "
       id="path12014"
       sodipodi:nodetypes="ccccccscccccccssccccscccccsccss"
       inkscape:export-filename="C:\temp\ujo256.png"
       inkscape:export-xdpi="124.22"
       inkscape:export-ydpi="124.22" />
    <rect
       style="opacity:0.21931446;fill:#ffffff;fill-opacity:1;fill-rule:nonzero;stroke:none;stroke-width:19.12400055;stroke-linecap:round;stroke-linejoin:bevel;stroke-miterlimit:4;stroke-dasharray:none;stroke-dashoffset:0;stroke-opacity:0.21176471"
       id="rect3196"
       width="150.25653"
       height="2.4153454"
       x="445.27994"
       y="723.16016"
       ry="1.2076727"
       transform="matrix(0.9773735,-0.2115206,0.5518554,0.8339398,0,0)" />
    <rect
       style="opacity:0.16597511;fill:#ffffff;fill-opacity:1;fill-rule:nonzero;stroke:none;stroke-width:19.12400055;stroke-linecap:round;stroke-linejoin:bevel;stroke-miterlimit:4;stroke-dasharray:none;stroke-dashoffset:0;stroke-opacity:0.21176471"
       id="rect3198"
       width="190.84651"
       height="8.8614235"
       x="746.74194"
       y="679.14984"
       ry="4.4307117"
       transform="matrix(0.9774446,-0.211192,0.1421577,0.989844,0,0)" />
    <path
       style="opacity:0.16182573;fill:#000000;fill-opacity:1;fill-rule:nonzero;stroke:none;stroke-width:19.12400055;stroke-linecap:round;stroke-linejoin:bevel;stroke-miterlimit:4;stroke-dasharray:none;stroke-dashoffset:0;stroke-opacity:0.21176471;filter:url(#filter18741)"
       d="M 58.875,94.75 C 58.805441,95.557172 58.949677,96.274464 59.3125,96.9375 C 59.675323,97.600536 60.25372,98.218885 61,98.75 C 61.74628,99.281115 62.669189,99.744841 63.75,100.15625 C 64.830811,100.56766 66.071082,100.91483 67.4375,101.21875 C 70.170336,101.82658 73.418289,102.24885 77,102.5 C 80.581711,102.75115 84.492064,102.82031 88.53125,102.8125 C 96.609621,102.79689 105.22139,102.37141 112.78125,101.90625 C 120.34111,101.44109 126.83985,100.94547 130.75,100.8125 C 130.8776,101.93086 130.82676,102.51772 130.65625,102.9375 C 130.48574,103.35728 130.21922,103.61312 129.96875,104.03125 C 129.71828,104.44938 129.45604,105.04284 129.34375,106.15625 C 129.23146,107.26966 129.25595,108.90062 129.5,111.40625 C 130.98395,111.40806 132.50819,111.27588 134.0625,111.03125 C 135.61681,110.78662 137.21509,110.43444 138.8125,109.96875 C 140.40991,109.50306 142.01175,108.94264 143.625,108.28125 C 145.23825,107.61986 146.83568,106.86298 148.4375,106.03125 C 149.31262,105.57686 150.13458,104.93688 151,104.4375 C 150.30488,104.50105 149.60314,104.67977 149,105.125 C 145.24181,107.52528 138.48761,106.18055 134.31698,105.96939 C 132.53295,103.26847 133.34296,100.07717 132.68001,98.012495 C 124.75079,97.533465 116.65025,97.65152 109.7725,98.061243 C 82.756902,99.962812 65.821822,97.238394 58.875,94.75 z "
       id="path3218"
       transform="translate(817.54117,466.85737)"
       sodipodi:nodetypes="cssssssscssscsssscccccc" />
    <path
       transform="matrix(0.8555145,0.5177789,-0.6459171,0.7634076,0,0)"
       style="opacity:0.21931446;fill:#ffffff;fill-opacity:1;fill-rule:nonzero;stroke:none;stroke-width:19.12400055;stroke-linecap:round;stroke-linejoin:bevel;stroke-miterlimit:4;stroke-dashoffset:0;stroke-opacity:0.21176471"
       d="M 1101.9218,-27.914354 L 1118.8759,-27.914354 L 1117.0708,-24.82544 L 1098.5919,-22.15953 L 1101.9218,-27.914354 z "
       id="rect6661"
       sodipodi:nodetypes="ccccc" />
    <path
       style="opacity:0.16182574;fill:#ffffff;fill-opacity:1;fill-rule:nonzero;stroke:none;stroke-width:19.12400055;stroke-linecap:round;stroke-linejoin:bevel;stroke-miterlimit:4;stroke-dashoffset:0;stroke-opacity:0.21176471"
       d="M 955.16123,606.175 L 965.78832,610.94747 L 961.16209,611.57333 L 950.85525,610.81535 L 955.16123,606.175 z "
       id="path6664"
       sodipodi:nodetypes="ccccc" />
    <path
       style="opacity:0.14522822;fill:#000000;fill-opacity:1;fill-rule:nonzero;stroke:none;stroke-width:1.69400001;stroke-linecap:round;stroke-linejoin:bevel;stroke-miterlimit:4;stroke-dasharray:1.694, 1.694;stroke-dashoffset:0;stroke-opacity:1;filter:url(#filter16358)"
       d="M 52.182643,127.79115 C 55.488727,129.6607 55.584814,130.29531 58.5625,131.875 C 61.641013,133.50818 64.591225,134.95638 67.625,136.15625 C 70.658775,137.35612 73.762088,138.29648 77.0625,138.9375 C 78.712706,139.25801 80.412252,139.49899 82.1875,139.65625 C 83.962748,139.81351 85.810787,139.89669 87.75,139.875 C 87.658301,138.90962 87.447061,138.12266 87.15625,137.40625 C 86.865439,136.68984 86.503094,136.04921 86.15625,135.375 C 85.809406,134.70079 85.478549,133.99502 85.21875,133.15625 C 84.958951,132.31748 84.748425,131.3351 84.71875,130.125 C 85.728249,129.73587 86.90918,129.62808 88.1875,129.6875 C 89.46582,129.74692 90.855319,129.985 92.375,130.28125 C 93.894681,130.5775 95.516417,130.92864 97.25,131.25 C 98.983583,131.57136 100.82998,131.86526 102.75,132 C 104.67005,132.13474 109.16637,132.24685 114.8125,132.21875 C 120.45863,132.19065 127.25813,132.01375 133.78125,131.5 C 137.04281,131.24313 140.2409,130.90756 143.1875,130.46875 C 146.1341,130.02994 148.81824,129.4736 151.09375,128.8125 C 151.56466,128.67569 151.94204,128.52238 152.375,128.375 C 151.0745,127.78767 147.88751,128.86334 146.4375,129.1875 C 140.3619,129.31308 134.25113,129.50752 128.1875,128.96875 C 122.49069,129.09123 117.00714,129.60219 111.31415,129.66615 C 104.70551,129.24133 97.877061,128.10989 91.25,128.15625 C 87.05604,127.31666 82.805643,127.06851 80.223607,131.16111 C 83.08994,136.89591 75.552628,136.88959 73.46875,134.3125 C 65.996869,131.15784 60.379576,127.6597 52.182643,127.79115 z "
       id="path8608"
       transform="translate(817.54117,466.85737)"
       sodipodi:nodetypes="csssscssscsssssssscccccccc" />
    <path
       style="opacity:0.16597511;fill:#000000;fill-opacity:1;fill-rule:nonzero;stroke:none;stroke-width:1.69400001;stroke-linecap:round;stroke-linejoin:bevel;stroke-miterlimit:4;stroke-dasharray:1.694, 1.694;stroke-dashoffset:0;stroke-opacity:1;filter:url(#filter14809)"
       d="M 59.152504,153.86251 C 59.798415,154.49663 60.961678,155.80242 61.71875,156.34375 C 62.777495,157.10079 63.93567,157.78536 65.1875,158.375 C 66.43933,158.96464 67.802192,159.46763 69.21875,159.90625 C 70.635308,160.34487 72.103321,160.69601 73.65625,161 C 76.762108,161.60799 80.112551,161.95719 83.59375,162.125 C 87.074949,162.29281 90.682814,162.29751 94.3125,162.15625 C 101.57187,161.87372 108.91407,161.10718 115.40625,160.375 C 121.89843,159.64282 127.5586,158.94547 131.46875,158.8125 C 131.77208,160.06265 131.77355,160.88463 131.625,161.5625 C 131.47645,162.24037 131.18209,162.77186 130.84375,163.34375 C 130.50541,163.91564 130.14105,164.53655 129.875,165.46875 C 129.60895,166.40095 129.43167,167.64744 129.5,169.40625 C 130.98395,169.40806 132.52539,169.29065 134.125,169.0625 C 135.72461,168.83435 137.3937,168.47498 139.0625,168.03125 C 140.7313,167.58752 142.40225,167.05117 144.09375,166.40625 C 145.78525,165.76133 147.48853,165.01923 149.15625,164.1875 C 150.82397,163.35577 152.46505,162.44165 154.0625,161.4375 C 155.65995,160.43335 157.2068,159.34968 158.6875,158.1875 C 159.35781,157.66138 159.95429,157.05636 160.59375,156.5 C 156.52103,158.76337 154.34008,159.58353 147.6875,162.03125 C 142.82034,162.49898 134.31627,162.72855 134.04374,161.28625 C 133.25188,157.09537 132.77139,156.8357 128.26876,157.41125 C 122.15961,158.19216 115.71555,158.54532 109.125,159.3125 C 103.39486,159.97952 96.194428,158.99146 90.03125,158.7775 C 79.149526,158.39974 69.684701,155.50652 59.152504,153.86251 z "
       id="path13600"
       transform="translate(817.54117,466.85737)"
       sodipodi:nodetypes="cssssssscssscssssssccssssc" />
    <path
       style="fill:none;fill-opacity:1;fill-rule:nonzero;stroke:#b2afff;stroke-width:1.56581843;stroke-linecap:round;stroke-linejoin:bevel;stroke-miterlimit:4;stroke-dasharray:1.56581835, 3.1316367;stroke-dashoffset:0;stroke-opacity:1"
       d="M 847.2278,554.80556 C 846.00285,578.52686 841.74053,593.29258 851.97623,629.67428"
       id="path19719"
       sodipodi:nodetypes="cc" />
  </g>
  <g
     inkscape:groupmode="layer"
     id="layer2"
     inkscape:label="ujo"
     transform="translate(-817.54117,-466.85737)" />
</svg>
