<?xml version="1.0" encoding="UTF-8"?><svg xmlns="http://www.w3.org/2000/svg" xmlns:xlink="http://www.w3.org/1999/xlink" fill-opacity="1" color-rendering="auto" color-interpolation="auto" text-rendering="auto" stroke="black" stroke-linecap="square" width="1334" stroke-miterlimit="10" shape-rendering="auto" stroke-opacity="1" fill="black" stroke-dasharray="none" font-weight="normal" stroke-width="1" height="616" font-family="'Dialog'" font-style="normal" stroke-linejoin="miter" font-size="12" stroke-dashoffset="0" image-rendering="auto">
  <!--Generated by ySVG 2.5-->
  <defs id="genericDefs"/>
  <g>
    <defs id="defs1">
      <clipPath clipPathUnits="userSpaceOnUse" id="clipPath1">
        <path d="M0 0 L1334 0 L1334 616 L0 616 L0 0 Z"/>
      </clipPath>
      <clipPath clipPathUnits="userSpaceOnUse" id="clipPath2">
        <path d="M-558 -327 L776 -327 L776 289 L-558 289 L-558 -327 Z"/>
      </clipPath>
      <clipPath clipPathUnits="userSpaceOnUse" id="clipPath3">
        <path d="M-542 -84 L-247 -84 L-247 69 L-542 69 L-542 -84 Z"/>
      </clipPath>
      <clipPath clipPathUnits="userSpaceOnUse" id="clipPath4">
        <path d="M-542 119 L-247 119 L-247 272 L-542 272 L-542 119 Z"/>
      </clipPath>
      <clipPath clipPathUnits="userSpaceOnUse" id="clipPath5">
        <path d="M-542 -287 L-247 -287 L-247 -134 L-542 -134 L-542 -287 Z"/>
      </clipPath>
      <clipPath clipPathUnits="userSpaceOnUse" id="clipPath6">
        <path d="M384 -311 L636 -311 L636 -111 L384 -111 L384 -311 Z"/>
      </clipPath>
      <clipPath clipPathUnits="userSpaceOnUse" id="clipPath7">
        <path d="M339 91 L759 91 L759 273 L339 273 L339 91 Z"/>
      </clipPath>
      <clipPath clipPathUnits="userSpaceOnUse" id="clipPath8">
        <path d="M438 -84 L760 -84 L760 52 L438 52 L438 -84 Z"/>
      </clipPath>
      <clipPath clipPathUnits="userSpaceOnUse" id="clipPath9">
        <path d="M-125 -84 L170 -84 L170 77 L-125 77 L-125 -84 Z"/>
      </clipPath>
      <clipPath clipPathUnits="userSpaceOnUse" id="clipPath10">
        <path d="M-125 119 L170 119 L170 272 L-125 272 L-125 119 Z"/>
      </clipPath>
      <clipPath clipPathUnits="userSpaceOnUse" id="clipPath11">
        <path d="M-125 -287 L170 -287 L170 -134 L-125 -134 L-125 -287 Z"/>
      </clipPath>
      <clipPath clipPathUnits="userSpaceOnUse" id="clipPath12">
        <path d="M0 0 L0 17 L66 17 L66 0 Z"/>
      </clipPath>
      <script type="text/ecmascript"><![CDATA[      var SVGDocument = null;
      var SVGRoot = null;
      var TrueCoords = null;
      var lastElement = null;
      var initialized = null;
      var tipGroup;
      function Init(evt)
      {
         SVGDocument = evt.target.ownerDocument;
         SVGRoot = SVGDocument.documentElement;
         TrueCoords = SVGRoot.createSVGPoint();
         initialized = evt;
      };
      function GetTrueCoords(evt)
      {
         var newScale = SVGRoot.currentScale;
         var translation = SVGRoot.currentTranslate;
         TrueCoords.x = (evt.clientX - translation.x)/newScale;
         TrueCoords.y = (evt.clientY - translation.y)/newScale;
      };
      function HideTooltip( evt )
      {
         if(initialized == null) {
           Init(evt);
         }
         if(tipGroup != null) {
           tipGroup.setAttributeNS(null, 'visibility', 'hidden');
         }
      };
      function ShowTooltip( evt )
      {
         if(initialized == null) {
           Init(evt);
         }
         GetTrueCoords( evt );
         var tipScale = 1/SVGRoot.currentScale;
         var targetElement = evt.currentTarget;
         if ( lastElement != targetElement )
         {
            var targetId = targetElement.getAttributeNS(null, 'id');
            var tipId = 'tooltip.' + targetId;
            tipGroup = SVGDocument.getElementById(tipId);
            var xPos = TrueCoords.x + (10 * tipScale);
            var yPos = TrueCoords.y + (10 * tipScale);
            tipGroup.setAttributeNS(null, 'transform', 'translate(' + xPos + ',' + yPos + ') scale(' + tipScale + ')');
            tipGroup.setAttributeNS(null, 'visibility', 'visible');
         }
      };
]]></script>
    </defs>
    <g fill="white" text-rendering="geometricPrecision" shape-rendering="geometricPrecision" transform="translate(558,327)" stroke="white">
      <rect x="-558" width="1334" height="616" y="-327" clip-path="url(#clipPath2)" stroke="none"/>
    </g>
    <g onmouseout="HideTooltip(evt)" id="y.node.0" onmousemove="ShowTooltip(evt)">
      <g fill="rgb(255,222,92)" text-rendering="geometricPrecision" shape-rendering="geometricPrecision" transform="matrix(1,0,0,1,558,327)" stroke="rgb(255,222,92)">
        <rect x="-541" width="293" height="151" y="-83" stroke="none"/>
      </g>
      <g fill="rgb(255,255,131)" text-rendering="geometricPrecision" shape-rendering="geometricPrecision" transform="matrix(1,0,0,1,558,327)" stroke="rgb(255,255,131)">
        <rect x="-542" width="1" height="153" y="-84" stroke="none"/>
        <rect x="-541" width="293" height="1" y="-84" stroke="none"/>
        <rect fill="rgb(178,155,64)" x="-541" width="294" height="1" y="68" stroke="none"/>
        <rect fill="rgb(178,155,64)" x="-248" width="1" height="152" y="-84" stroke="none"/>
      </g>
      <g text-rendering="geometricPrecision" stroke-miterlimit="1.45" shape-rendering="geometricPrecision" font-family="sans-serif" transform="matrix(1,0,0,1,558,327)" stroke-linecap="butt">
        <text x="-427.8048" xml:space="preserve" y="-67.8801" clip-path="url(#clipPath3)" stroke="none">&lt;&lt;pojo&gt;&gt;</text>
      </g>
      <g>
        <g font-size="14" stroke-linecap="butt" transform="matrix(1,0,0,1,558,327)" text-rendering="geometricPrecision" font-family="sans-serif" shape-rendering="geometricPrecision" font-weight="bold" stroke-miterlimit="1.45">
          <text x="-417.4913" xml:space="preserve" y="-43.0549" clip-path="url(#clipPath3)" stroke="none">Order</text>
        </g>
      </g>
      <g text-rendering="geometricPrecision" shape-rendering="geometricPrecision" transform="matrix(1,0,0,1,558,327)">
        <line y2="-34" fill="none" x1="-541" clip-path="url(#clipPath3)" x2="-248" y1="-34"/>
        <text stroke-linecap="butt" x="-537.6998" y="-18.6144" clip-path="url(#clipPath3)" font-family="sans-serif" stroke="none" stroke-miterlimit="1.45" xml:space="preserve">- id: Integer</text>
        <text stroke-linecap="butt" x="-537.6998" y="-4.6457" clip-path="url(#clipPath3)" font-family="sans-serif" stroke="none" stroke-miterlimit="1.45" xml:space="preserve">- state: State</text>
        <text stroke-linecap="butt" x="-537.6998" y="9.3231" clip-path="url(#clipPath3)" font-family="sans-serif" stroke="none" stroke-miterlimit="1.45" xml:space="preserve">- totalPrice: BigDecimal</text>
        <text stroke-linecap="butt" x="-537.6998" y="23.2918" clip-path="url(#clipPath3)" font-family="sans-serif" stroke="none" stroke-miterlimit="1.45" xml:space="preserve">- name: String</text>
        <text stroke-linecap="butt" x="-537.6998" y="37.2606" clip-path="url(#clipPath3)" font-family="sans-serif" stroke="none" stroke-miterlimit="1.45" xml:space="preserve">- create: LocalDateTime</text>
        <line y2="45" fill="none" x1="-541" clip-path="url(#clipPath3)" x2="-248" y1="45"/>
      </g>
    </g>
    <g onmouseout="HideTooltip(evt)" id="y.node.1" onmousemove="ShowTooltip(evt)">
      <g fill="rgb(255,222,92)" text-rendering="geometricPrecision" shape-rendering="geometricPrecision" transform="matrix(1,0,0,1,558,327)" stroke="rgb(255,222,92)">
        <rect x="-541" width="293" height="151" y="120" stroke="none"/>
        <rect fill="rgb(255,255,131)" x="-542" width="1" height="153" y="119" stroke="none"/>
        <rect fill="rgb(255,255,131)" x="-541" width="293" height="1" y="119" stroke="none"/>
        <rect fill="rgb(178,155,64)" x="-541" width="294" height="1" y="271" stroke="none"/>
        <rect fill="rgb(178,155,64)" x="-248" width="1" height="152" y="119" stroke="none"/>
      </g>
      <g text-rendering="geometricPrecision" stroke-miterlimit="1.45" shape-rendering="geometricPrecision" font-family="sans-serif" transform="matrix(1,0,0,1,558,327)" stroke-linecap="butt">
        <text x="-427.8048" xml:space="preserve" y="135.921" clip-path="url(#clipPath4)" stroke="none">&lt;&lt;pojo&gt;&gt;</text>
      </g>
      <g>
        <g font-size="14" stroke-linecap="butt" transform="matrix(1,0,0,1,558,327)" text-rendering="geometricPrecision" font-family="sans-serif" shape-rendering="geometricPrecision" font-weight="bold" stroke-miterlimit="1.45">
          <text x="-412.8702" xml:space="preserve" y="160.7462" clip-path="url(#clipPath4)" stroke="none">Item</text>
        </g>
      </g>
      <g text-rendering="geometricPrecision" shape-rendering="geometricPrecision" transform="matrix(1,0,0,1,558,327)">
        <line y2="169" fill="none" x1="-541" clip-path="url(#clipPath4)" x2="-248" y1="169"/>
        <text stroke-linecap="butt" x="-537.6998" y="185.1866" clip-path="url(#clipPath4)" font-family="sans-serif" stroke="none" stroke-miterlimit="1.45" xml:space="preserve">- id: Integer</text>
        <text stroke-linecap="butt" x="-537.6998" y="199.1554" clip-path="url(#clipPath4)" font-family="sans-serif" stroke="none" stroke-miterlimit="1.45" xml:space="preserve">- price: BigDecimal</text>
        <text stroke-linecap="butt" x="-537.6998" y="213.1241" clip-path="url(#clipPath4)" font-family="sans-serif" stroke="none" stroke-miterlimit="1.45" xml:space="preserve">- name: String</text>
        <line y2="220" fill="none" x1="-541" clip-path="url(#clipPath4)" x2="-248" y1="220"/>
      </g>
    </g>
    <g onmouseout="HideTooltip(evt)" id="y.node.2" onmousemove="ShowTooltip(evt)">
      <g fill="rgb(255,222,92)" text-rendering="geometricPrecision" shape-rendering="geometricPrecision" transform="matrix(1,0,0,1,558,327)" stroke="rgb(255,222,92)">
        <rect x="-541" width="293" height="151" y="-286" stroke="none"/>
        <rect fill="rgb(255,255,131)" x="-542" width="1" height="153" y="-287" stroke="none"/>
        <rect fill="rgb(255,255,131)" x="-541" width="293" height="1" y="-287" stroke="none"/>
        <rect fill="rgb(178,155,64)" x="-541" width="294" height="1" y="-135" stroke="none"/>
        <rect fill="rgb(178,155,64)" x="-248" width="1" height="152" y="-287" stroke="none"/>
      </g>
      <g text-rendering="geometricPrecision" stroke-miterlimit="1.45" shape-rendering="geometricPrecision" font-family="sans-serif" transform="matrix(1,0,0,1,558,327)" stroke-linecap="butt">
        <text x="-427.8048" xml:space="preserve" y="-271.6811" clip-path="url(#clipPath5)" stroke="none">&lt;&lt;pojo&gt;&gt;</text>
      </g>
      <g>
        <g font-size="14" stroke-linecap="butt" transform="matrix(1,0,0,1,558,327)" text-rendering="geometricPrecision" font-family="sans-serif" shape-rendering="geometricPrecision" font-weight="bold" stroke-miterlimit="1.45">
          <text x="-412.9283" xml:space="preserve" y="-246.8559" clip-path="url(#clipPath5)" stroke="none">User</text>
        </g>
      </g>
      <g text-rendering="geometricPrecision" shape-rendering="geometricPrecision" transform="matrix(1,0,0,1,558,327)">
        <line y2="-238" fill="none" x1="-541" clip-path="url(#clipPath5)" x2="-248" y1="-238"/>
        <text stroke-linecap="butt" x="-537.6998" y="-222.4155" clip-path="url(#clipPath5)" font-family="sans-serif" stroke="none" stroke-miterlimit="1.45" xml:space="preserve">- id: Integer</text>
        <text stroke-linecap="butt" x="-537.6998" y="-208.4468" clip-path="url(#clipPath5)" font-family="sans-serif" stroke="none" stroke-miterlimit="1.45" xml:space="preserve">- pin: Short</text>
        <text stroke-linecap="butt" x="-537.6998" y="-194.478" clip-path="url(#clipPath5)" font-family="sans-serif" stroke="none" stroke-miterlimit="1.45" xml:space="preserve">- firstName : String</text>
        <text stroke-linecap="butt" x="-537.6998" y="-180.5093" clip-path="url(#clipPath5)" font-family="sans-serif" stroke="none" stroke-miterlimit="1.45" xml:space="preserve">- lastName : String</text>
        <text stroke-linecap="butt" x="-537.6998" y="-166.5405" clip-path="url(#clipPath5)" font-family="sans-serif" stroke="none" stroke-miterlimit="1.45" xml:space="preserve">- created : LocalDateTime</text>
        <line y2="-158" fill="none" x1="-541" clip-path="url(#clipPath5)" x2="-248" y1="-158"/>
      </g>
    </g>
    <g onmouseout="HideTooltip(evt)" id="y.node.3" onmousemove="ShowTooltip(evt)">
      <g fill="rgb(204,255,204)" text-rendering="geometricPrecision" shape-rendering="geometricPrecision" transform="matrix(1,0,0,1,558,327)" stroke="rgb(204,255,204)">
        <rect x="385" width="250" height="198" y="-310" stroke="none"/>
        <rect fill="white" x="384" width="1" height="200" y="-311" stroke="none"/>
        <rect fill="white" x="385" width="250" height="1" y="-311" stroke="none"/>
        <rect fill="rgb(142,178,142)" x="385" width="251" height="1" y="-112" stroke="none"/>
        <rect fill="rgb(142,178,142)" x="635" width="1" height="199" y="-311" stroke="none"/>
      </g>
      <g text-rendering="geometricPrecision" stroke-miterlimit="1.45" shape-rendering="geometricPrecision" font-family="sans-serif" transform="matrix(1,0,0,1,558,327)" stroke-linecap="butt">
        <text x="464.0467" xml:space="preserve" y="-294.912" clip-path="url(#clipPath6)" stroke="none">&lt;&lt;interface&gt;&gt;</text>
      </g>
      <g>
        <g font-size="14" stroke-linecap="butt" transform="matrix(1,0,0,1,558,327)" text-rendering="geometricPrecision" font-family="sans-serif" shape-rendering="geometricPrecision" font-weight="bold" stroke-miterlimit="1.45">
          <text x="429.4998" xml:space="preserve" y="-270.0868" clip-path="url(#clipPath6)" stroke="none">Key&lt;Domain,Value&gt;</text>
        </g>
      </g>
      <g text-rendering="geometricPrecision" shape-rendering="geometricPrecision" transform="matrix(1,0,0,1,558,327)">
        <line y2="-261" fill="none" x1="385" clip-path="url(#clipPath6)" x2="636" y1="-261"/>
        <line y2="-251" fill="none" x1="385" clip-path="url(#clipPath6)" x2="636" y1="-251"/>
        <text stroke-linecap="butt" x="389.5945" y="-235.6463" clip-path="url(#clipPath6)" font-family="sans-serif" stroke="none" stroke-miterlimit="1.45" xml:space="preserve">getName() : Sttring</text>
        <text stroke-linecap="butt" x="389.5945" y="-221.6776" clip-path="url(#clipPath6)" font-family="sans-serif" stroke="none" stroke-miterlimit="1.45" xml:space="preserve">getOrder() : int</text>
        <text stroke-linecap="butt" x="389.5945" y="-207.7088" clip-path="url(#clipPath6)" font-family="sans-serif" stroke="none" stroke-miterlimit="1.45" xml:space="preserve">getDomainClass() : Class</text>
        <text stroke-linecap="butt" x="389.5945" y="-193.7401" clip-path="url(#clipPath6)" font-family="sans-serif" stroke="none" stroke-miterlimit="1.45" xml:space="preserve">getValueClass() : Class</text>
        <text stroke-linecap="butt" x="389.5945" y="-179.7713" clip-path="url(#clipPath6)" font-family="sans-serif" stroke="none" stroke-miterlimit="1.45" xml:space="preserve">setValue(Domain,Value)</text>
        <text stroke-linecap="butt" x="389.5945" y="-165.8026" clip-path="url(#clipPath6)" font-family="sans-serif" stroke="none" stroke-miterlimit="1.45" xml:space="preserve">getValue(Domain) : Value</text>
        <text stroke-linecap="butt" x="389.5945" y="-151.8338" clip-path="url(#clipPath6)" font-family="sans-serif" stroke="none" stroke-miterlimit="1.45" xml:space="preserve">getDefaultValue() : Value</text>
        <text stroke-linecap="butt" x="389.5945" y="-137.8651" clip-path="url(#clipPath6)" font-family="sans-serif" stroke="none" stroke-miterlimit="1.45" xml:space="preserve">join(Key&lt;Value,X&gt;) : Key&lt;Domain,X&gt;</text>
        <text stroke-linecap="butt" x="389.5945" y="-123.8963" clip-path="url(#clipPath6)" font-family="sans-serif" stroke="none" stroke-miterlimit="1.45" xml:space="preserve"> </text>
      </g>
    </g>
    <g onmouseout="HideTooltip(evt)" id="y.node.4" onmousemove="ShowTooltip(evt)">
      <g fill="rgb(204,255,204)" text-rendering="geometricPrecision" shape-rendering="geometricPrecision" transform="matrix(1,0,0,1,558,327)" stroke="rgb(204,255,204)">
        <rect x="340" width="418" height="180" y="92" stroke="none"/>
        <rect fill="white" x="339" width="1" height="182" y="91" stroke="none"/>
        <rect fill="white" x="340" width="418" height="1" y="91" stroke="none"/>
        <rect fill="rgb(142,178,142)" x="340" width="419" height="1" y="272" stroke="none"/>
        <rect fill="rgb(142,178,142)" x="758" width="1" height="181" y="91" stroke="none"/>
      </g>
      <g text-rendering="geometricPrecision" stroke-miterlimit="1.45" shape-rendering="geometricPrecision" font-family="sans-serif" transform="matrix(1,0,0,1,558,327)" stroke-linecap="butt">
        <text x="502.4412" xml:space="preserve" y="107.6387" clip-path="url(#clipPath7)" stroke="none">&lt;&lt;interface&gt;&gt;</text>
      </g>
      <g>
        <g font-size="14" stroke-linecap="butt" transform="matrix(1,0,0,1,558,327)" text-rendering="geometricPrecision" font-family="sans-serif" shape-rendering="geometricPrecision" font-weight="bold" stroke-miterlimit="1.45">
          <text x="414.3382" xml:space="preserve" y="132.4639" clip-path="url(#clipPath7)" stroke="none">CriterionProvider&lt;Domain,Value&gt;</text>
        </g>
      </g>
      <g text-rendering="geometricPrecision" shape-rendering="geometricPrecision" transform="matrix(1,0,0,1,558,327)">
        <line y2="140" fill="none" x1="340" clip-path="url(#clipPath7)" x2="758" y1="140"/>
        <line y2="150" fill="none" x1="340" clip-path="url(#clipPath7)" x2="758" y1="150"/>
        <text stroke-linecap="butt" x="344.289" y="166.9043" clip-path="url(#clipPath7)" font-family="sans-serif" stroke="none" stroke-miterlimit="1.45" xml:space="preserve">forAll() : Criterion&lt;Domain&gt;</text>
        <text stroke-linecap="butt" x="344.289" y="180.873" clip-path="url(#clipPath7)" font-family="sans-serif" stroke="none" stroke-miterlimit="1.45" xml:space="preserve">forNone() : Criterion&lt;Domain&gt;</text>
        <text stroke-linecap="butt" x="344.289" y="194.8418" clip-path="url(#clipPath7)" font-family="sans-serif" stroke="none" stroke-miterlimit="1.45" xml:space="preserve">forCondition(Operator,Value) : Criterion&lt;Domain&gt;</text>
        <text stroke-linecap="butt" x="344.289" y="208.8105" clip-path="url(#clipPath7)" font-family="sans-serif" stroke="none" stroke-miterlimit="1.45" xml:space="preserve">forCondition(Oprerator,Key&lt;Domain,Value&gt;) : Criterion&lt;Domain&gt;</text>
        <text stroke-linecap="butt" x="344.289" y="222.7793" clip-path="url(#clipPath7)" font-family="sans-serif" stroke="none" stroke-miterlimit="1.45" xml:space="preserve">forEquals(Value) : Criterion&lt;Domain&gt;</text>
        <text stroke-linecap="butt" x="344.289" y="236.748" clip-path="url(#clipPath7)" font-family="sans-serif" stroke="none" stroke-miterlimit="1.45" xml:space="preserve">forGt(Value) : Criterion&lt;Domain&gt;</text>
        <text stroke-linecap="butt" x="344.289" y="250.7168" clip-path="url(#clipPath7)" font-family="sans-serif" stroke="none" stroke-miterlimit="1.45" xml:space="preserve">forGe(Value) : Criterion&lt;Domain&gt;</text>
        <text stroke-linecap="butt" x="344.289" y="264.6855" clip-path="url(#clipPath7)" font-family="sans-serif" stroke="none" stroke-miterlimit="1.45" xml:space="preserve">...</text>
      </g>
    </g>
    <g onmouseout="HideTooltip(evt)" id="y.node.5" onmousemove="ShowTooltip(evt)">
      <g fill="rgb(255,222,92)" text-rendering="geometricPrecision" shape-rendering="geometricPrecision" transform="matrix(1,0,0,1,558,327)" stroke="rgb(255,222,92)">
        <rect x="439" width="320" height="134" y="-83" stroke="none"/>
        <rect fill="rgb(255,255,131)" x="438" width="1" height="136" y="-84" stroke="none"/>
        <rect fill="rgb(255,255,131)" x="439" width="320" height="1" y="-84" stroke="none"/>
        <rect fill="rgb(178,155,64)" x="439" width="321" height="1" y="51" stroke="none"/>
        <rect fill="rgb(178,155,64)" x="759" width="1" height="135" y="-84" stroke="none"/>
      </g>
      <g>
        <g font-size="14" stroke-linecap="butt" transform="matrix(1,0,0,1,558,327)" text-rendering="geometricPrecision" font-family="sans-serif" shape-rendering="geometricPrecision" font-weight="bold" stroke-miterlimit="1.45">
          <text x="523.1392" xml:space="preserve" y="-66.0236" clip-path="url(#clipPath8)" stroke="none">Criterion&lt;Domain&gt;</text>
        </g>
      </g>
      <g text-rendering="geometricPrecision" shape-rendering="geometricPrecision" transform="matrix(1,0,0,1,558,327)">
        <line y2="-57" fill="none" x1="439" clip-path="url(#clipPath8)" x2="759" y1="-57"/>
        <text stroke-linecap="butt" x="443.3445" y="-41.5832" clip-path="url(#clipPath8)" font-family="sans-serif" stroke="none" stroke-miterlimit="1.45" xml:space="preserve">getLeftItem()</text>
        <text stroke-linecap="butt" x="443.3445" y="-27.6144" clip-path="url(#clipPath8)" font-family="sans-serif" stroke="none" stroke-miterlimit="1.45" xml:space="preserve">getOperatir()</text>
        <text stroke-linecap="butt" x="443.3445" y="-13.6457" clip-path="url(#clipPath8)" font-family="sans-serif" stroke="none" stroke-miterlimit="1.45" xml:space="preserve">getRightItem()</text>
        <text stroke-linecap="butt" x="443.3445" y="0.3231" clip-path="url(#clipPath8)" font-family="sans-serif" stroke="none" stroke-miterlimit="1.45" xml:space="preserve">and(Criterion&lt;Domain&gt;) : Criterion&lt;Domain&gt;</text>
        <text stroke-linecap="butt" x="443.3445" y="14.2918" clip-path="url(#clipPath8)" font-family="sans-serif" stroke="none" stroke-miterlimit="1.45" xml:space="preserve">or(Criterion&lt;Domain&gt;) : Criterion&lt;Domain&gt;</text>
        <text stroke-linecap="butt" x="443.3445" y="28.2606" clip-path="url(#clipPath8)" font-family="sans-serif" stroke="none" stroke-miterlimit="1.45" xml:space="preserve">select(List&lt;Domain&gt;) : List&lt;Domain&gt; </text>
        <line y2="36" fill="none" x1="439" clip-path="url(#clipPath8)" x2="759" y1="36"/>
      </g>
    </g>
    <g onmouseout="HideTooltip(evt)" id="y.node.6" onmousemove="ShowTooltip(evt)">
      <g fill="rgb(255,222,92)" text-rendering="geometricPrecision" shape-rendering="geometricPrecision" transform="matrix(1,0,0,1,558,327)" stroke="rgb(255,222,92)">
        <rect x="-124" width="293" height="159" y="-83" stroke="none"/>
        <rect fill="rgb(255,255,131)" x="-125" width="1" height="161" y="-84" stroke="none"/>
        <rect fill="rgb(255,255,131)" x="-124" width="293" height="1" y="-84" stroke="none"/>
        <rect fill="rgb(178,155,64)" x="-124" width="294" height="1" y="76" stroke="none"/>
        <rect fill="rgb(178,155,64)" x="169" width="1" height="160" y="-84" stroke="none"/>
      </g>
      <g text-rendering="geometricPrecision" stroke-miterlimit="1.45" shape-rendering="geometricPrecision" font-family="sans-serif" transform="matrix(1,0,0,1,558,327)" stroke-linecap="butt">
        <text x="-28.9274" xml:space="preserve" y="-67.8801" clip-path="url(#clipPath9)" stroke="none">&lt;&lt;generated&gt;&gt;</text>
      </g>
      <g>
        <g font-size="14" stroke-linecap="butt" transform="matrix(1,0,0,1,558,327)" text-rendering="geometricPrecision" font-family="sans-serif" shape-rendering="geometricPrecision" font-weight="bold" stroke-miterlimit="1.45">
          <text x="-20.2243" xml:space="preserve" y="-43.0549" clip-path="url(#clipPath9)" stroke="none">MetaOrder</text>
        </g>
      </g>
      <g text-rendering="geometricPrecision" shape-rendering="geometricPrecision" transform="matrix(1,0,0,1,558,327)">
        <line y2="-34" fill="none" x1="-124" clip-path="url(#clipPath9)" x2="168" y1="-34"/>
        <line y2="-24" fill="none" x1="-124" clip-path="url(#clipPath9)" x2="168" y1="-24"/>
        <text stroke-linecap="butt" x="-120.6495" y="-8.6144" clip-path="url(#clipPath9)" font-family="sans-serif" stroke="none" stroke-miterlimit="1.45" xml:space="preserve">keyId() : Key&lt;Order,Integer&gt;</text>
        <text stroke-linecap="butt" x="-120.6495" y="5.3543" clip-path="url(#clipPath9)" font-family="sans-serif" stroke="none" stroke-miterlimit="1.45" xml:space="preserve">keyState() : Key&lt;Order,State&gt;</text>
        <text stroke-linecap="butt" x="-120.6495" y="19.3231" clip-path="url(#clipPath9)" font-family="sans-serif" stroke="none" stroke-miterlimit="1.45" xml:space="preserve">keyTotalPrice() : Key&lt;Order,BigDecimal&gt;</text>
        <text stroke-linecap="butt" x="-120.6495" y="33.2918" clip-path="url(#clipPath9)" font-family="sans-serif" stroke="none" stroke-miterlimit="1.45" xml:space="preserve">keyName() : Key&lt;Order,String&gt;</text>
        <text stroke-linecap="butt" x="-120.6495" y="47.2606" clip-path="url(#clipPath9)" font-family="sans-serif" stroke="none" stroke-miterlimit="1.45" xml:space="preserve">keyCreate() : Key&lt;Order,LocalDateTime&gt;</text>
        <text stroke-linecap="butt" x="-120.6495" y="61.2293" clip-path="url(#clipPath9)" font-family="sans-serif" stroke="none" stroke-miterlimit="1.45" xml:space="preserve">keyUser() : MetaUser&lt;Order,User&gt;</text>
      </g>
    </g>
    <g onmouseout="HideTooltip(evt)" id="y.node.7" onmousemove="ShowTooltip(evt)">
      <g fill="rgb(255,222,92)" text-rendering="geometricPrecision" shape-rendering="geometricPrecision" transform="matrix(1,0,0,1,558,327)" stroke="rgb(255,222,92)">
        <rect x="-124" width="293" height="151" y="120" stroke="none"/>
        <rect fill="rgb(255,255,131)" x="-125" width="1" height="153" y="119" stroke="none"/>
        <rect fill="rgb(255,255,131)" x="-124" width="293" height="1" y="119" stroke="none"/>
        <rect fill="rgb(178,155,64)" x="-124" width="294" height="1" y="271" stroke="none"/>
        <rect fill="rgb(178,155,64)" x="169" width="1" height="152" y="119" stroke="none"/>
      </g>
      <g text-rendering="geometricPrecision" stroke-miterlimit="1.45" shape-rendering="geometricPrecision" font-family="sans-serif" transform="matrix(1,0,0,1,558,327)" stroke-linecap="butt">
        <text x="-28.9274" xml:space="preserve" y="135.921" clip-path="url(#clipPath10)" stroke="none">&lt;&lt;generated&gt;&gt;</text>
      </g>
      <g>
        <g font-size="14" stroke-linecap="butt" transform="matrix(1,0,0,1,558,327)" text-rendering="geometricPrecision" font-family="sans-serif" shape-rendering="geometricPrecision" font-weight="bold" stroke-miterlimit="1.45">
          <text x="-15.6032" xml:space="preserve" y="160.7462" clip-path="url(#clipPath10)" stroke="none">MetaItem</text>
        </g>
      </g>
      <g text-rendering="geometricPrecision" shape-rendering="geometricPrecision" transform="matrix(1,0,0,1,558,327)">
        <line y2="169" fill="none" x1="-124" clip-path="url(#clipPath10)" x2="168" y1="169"/>
        <line y2="179" fill="none" x1="-124" clip-path="url(#clipPath10)" x2="168" y1="179"/>
        <text stroke-linecap="butt" x="-120.6495" y="195.1866" clip-path="url(#clipPath10)" font-family="sans-serif" stroke="none" stroke-miterlimit="1.45" xml:space="preserve">keyId : Key&lt;Item, Integer&gt;</text>
        <text stroke-linecap="butt" x="-120.6495" y="209.1554" clip-path="url(#clipPath10)" font-family="sans-serif" stroke="none" stroke-miterlimit="1.45" xml:space="preserve">keyPrice : Key&lt;Item, BigDecimal&gt;</text>
        <text stroke-linecap="butt" x="-120.6495" y="223.1241" clip-path="url(#clipPath10)" font-family="sans-serif" stroke="none" stroke-miterlimit="1.45" xml:space="preserve">keyName : Key&lt;Item, String&gt;</text>
        <text stroke-linecap="butt" x="-120.6495" y="237.0929" clip-path="url(#clipPath10)" font-family="sans-serif" stroke="none" stroke-miterlimit="1.45" xml:space="preserve">keyOrder : MetaOrder&lt;Item,Order&gt;</text>
      </g>
    </g>
    <g onmouseout="HideTooltip(evt)" id="y.node.8" onmousemove="ShowTooltip(evt)">
      <g fill="rgb(255,222,92)" text-rendering="geometricPrecision" shape-rendering="geometricPrecision" transform="matrix(1,0,0,1,558,327)" stroke="rgb(255,222,92)">
        <rect x="-124" width="293" height="151" y="-286" stroke="none"/>
        <rect fill="rgb(255,255,131)" x="-125" width="1" height="153" y="-287" stroke="none"/>
        <rect fill="rgb(255,255,131)" x="-124" width="293" height="1" y="-287" stroke="none"/>
        <rect fill="rgb(178,155,64)" x="-124" width="294" height="1" y="-135" stroke="none"/>
        <rect fill="rgb(178,155,64)" x="169" width="1" height="152" y="-287" stroke="none"/>
      </g>
      <g text-rendering="geometricPrecision" stroke-miterlimit="1.45" shape-rendering="geometricPrecision" font-family="sans-serif" transform="matrix(1,0,0,1,558,327)" stroke-linecap="butt">
        <text x="-28.9274" xml:space="preserve" y="-271.6811" clip-path="url(#clipPath11)" stroke="none">&lt;&lt;generated&gt;&gt;</text>
      </g>
      <g>
        <g font-size="14" stroke-linecap="butt" transform="matrix(1,0,0,1,558,327)" text-rendering="geometricPrecision" font-family="sans-serif" shape-rendering="geometricPrecision" font-weight="bold" stroke-miterlimit="1.45">
          <text x="-15.6613" xml:space="preserve" y="-246.8559" clip-path="url(#clipPath11)" stroke="none">MetaUser</text>
        </g>
      </g>
      <g text-rendering="geometricPrecision" shape-rendering="geometricPrecision" transform="matrix(1,0,0,1,558,327)">
        <line y2="-238" fill="none" x1="-124" clip-path="url(#clipPath11)" x2="168" y1="-238"/>
        <line y2="-228" fill="none" x1="-124" clip-path="url(#clipPath11)" x2="168" y1="-228"/>
        <text stroke-linecap="butt" x="-120.6495" y="-212.4155" clip-path="url(#clipPath11)" font-family="sans-serif" stroke="none" stroke-miterlimit="1.45" xml:space="preserve">keyId: Key&lt;User,Integer&gt;</text>
        <text stroke-linecap="butt" x="-120.6495" y="-198.4468" clip-path="url(#clipPath11)" font-family="sans-serif" stroke="none" stroke-miterlimit="1.45" xml:space="preserve">keyPin: Key&lt;User,Short&gt;</text>
        <text stroke-linecap="butt" x="-120.6495" y="-184.478" clip-path="url(#clipPath11)" font-family="sans-serif" stroke="none" stroke-miterlimit="1.45" xml:space="preserve">keyFirstName: Key&lt;User,String&gt;</text>
        <text stroke-linecap="butt" x="-120.6495" y="-170.5093" clip-path="url(#clipPath11)" font-family="sans-serif" stroke="none" stroke-miterlimit="1.45" xml:space="preserve">keyLastName: Key&lt;User,String&gt;</text>
        <text stroke-linecap="butt" x="-120.6495" y="-156.5405" clip-path="url(#clipPath11)" font-family="sans-serif" stroke="none" stroke-miterlimit="1.45" xml:space="preserve">keyCreated: Key&lt;User,LocalDateTime&gt;</text>
      </g>
    </g>
    <g id="y.edge.1">
      <g text-rendering="geometricPrecision" stroke-miterlimit="1.45" shape-rendering="geometricPrecision" transform="matrix(1,0,0,1,558,327)" stroke-linecap="butt">
        <path fill="none" d="M-394.878 112.8097 L-394.878 69.7637"/>
        <path d="M-394.878 119.8097 L-399.878 112.8097 L-394.878 105.8097 L-389.878 112.8097 Z" stroke="none"/>
      </g>
      <g>
        <g text-rendering="geometricPrecision" stroke-miterlimit="1.45" shape-rendering="geometricPrecision" font-family="sans-serif" transform="matrix(1,0,0,1,558,327)" stroke-linecap="butt">
          <text x="-406.5128" xml:space="preserve" y="104.8273" stroke="none">1</text>
        </g>
      </g>
    </g>
    <g id="y.edge.0">
      <g text-rendering="geometricPrecision" stroke-miterlimit="1.45" shape-rendering="geometricPrecision" transform="matrix(1,0,0,1,558,327)" stroke-linecap="butt">
        <path fill="none" d="M-394.878 -90.9914 L-394.878 -134.0374"/>
        <path d="M-394.878 -83.9914 L-399.878 -90.9914 L-394.878 -97.9914 L-389.878 -90.9914 Z" stroke="none"/>
      </g>
      <g>
        <g text-rendering="geometricPrecision" stroke-miterlimit="1.45" shape-rendering="geometricPrecision" font-family="sans-serif" transform="matrix(1,0,0,1,558,327)" stroke-linecap="butt">
          <text x="-406.5128" xml:space="preserve" y="-98.9738" stroke="none">1</text>
        </g>
      </g>
    </g>
    <g id="y.edge.13">
      <g text-rendering="geometricPrecision" stroke-miterlimit="1.45" stroke-dasharray="6,2" shape-rendering="geometricPrecision" transform="matrix(1,0,0,1,558,327)" stroke-linecap="butt">
        <path fill="none" d="M599.6163 91.4604 L599.6163 57.2865"/>
        <path d="M599.6163 53.2865 L593.6163 65.2865 L599.6163 53.2865 L605.6163 65.2865 Z" stroke="none"/>
        <path fill="none" stroke-miterlimit="10" stroke-dasharray="none" d="M599.6163 53.2865 L593.6163 65.2865 L599.6163 53.2865 L605.6163 65.2865 Z" stroke-linecap="square"/>
      </g>
    </g>
    <g id="y.edge.6">
      <g text-rendering="geometricPrecision" stroke-miterlimit="1.45" stroke-dasharray="6,2" shape-rendering="geometricPrecision" transform="matrix(1,0,0,1,558,327)" stroke-linecap="butt">
        <path fill="none" d="M169.9826 -65.9633 L370.8016 -151.3463"/>
        <path fill="white" d="M384.6057 -157.2155 L367.5337 -156.4767 L372.229 -145.4334 Z" stroke="none"/>
        <path stroke-dasharray="none" fill="none" d="M384.6057 -157.2155 L367.5337 -156.4767 L372.229 -145.4334 Z"/>
      </g>
    </g>
    <g id="y.edge.7">
      <g text-rendering="geometricPrecision" stroke-miterlimit="1.45" stroke-dasharray="6,2" shape-rendering="geometricPrecision" transform="matrix(1,0,0,1,558,327)" stroke-linecap="butt">
        <path fill="none" d="M170.0116 48.9513 L325.1866 103.6046"/>
        <path fill="white" d="M339.3347 108.5876 L326.2366 97.6131 L322.2502 108.9316 Z" stroke="none"/>
        <path stroke-dasharray="none" fill="none" d="M339.3347 108.5876 L326.2366 97.6131 L322.2502 108.9316 Z"/>
      </g>
    </g>
    <g id="y.edge.11">
      <g text-rendering="geometricPrecision" stroke-miterlimit="1.45" stroke-dasharray="6,2" shape-rendering="geometricPrecision" transform="matrix(1,0,0,1,558,327)" stroke-linecap="butt">
        <path fill="none" d="M-125.6434 -4.5359 L-242.0818 -5.6527"/>
        <path d="M-246.0816 -5.6911 L-234.1397 0.4238 L-246.0816 -5.6911 L-234.0247 -11.5757 Z" stroke="none"/>
        <path fill="none" stroke-miterlimit="10" stroke-dasharray="none" d="M-246.0816 -5.6911 L-234.1397 0.4238 L-246.0816 -5.6911 L-234.0247 -11.5757 Z" stroke-linecap="square"/>
      </g>
    </g>
    <g id="y.edge.3">
      <g text-rendering="geometricPrecision" stroke-miterlimit="1.45" shape-rendering="geometricPrecision" transform="matrix(1,0,0,1,558,327)" stroke-linecap="butt">
        <path fill="none" d="M22.1722 112.7575 L22.1722 77.789"/>
        <path d="M22.1722 119.7575 L17.1722 112.7575 L22.1722 105.7575 L27.1722 112.7575 Z" stroke="none"/>
      </g>
      <g>
        <g text-rendering="geometricPrecision" stroke-miterlimit="1.45" shape-rendering="geometricPrecision" font-family="sans-serif" transform="matrix(1,0,0,1,558,327)" stroke-linecap="butt">
          <text x="10.5375" xml:space="preserve" y="104.8273" stroke="none">1</text>
        </g>
      </g>
    </g>
    <g id="y.edge.8">
      <g text-rendering="geometricPrecision" stroke-miterlimit="1.45" stroke-dasharray="6,2" shape-rendering="geometricPrecision" transform="matrix(1,0,0,1,558,327)" stroke-linecap="butt">
        <path fill="none" d="M169.9955 130.739 L400.4209 -100.1852"/>
        <path fill="white" d="M411.016 -110.8032 L395.4673 -103.7153 L403.9618 -95.2392 Z" stroke="none"/>
        <path stroke-dasharray="none" fill="none" d="M411.016 -110.8032 L395.4673 -103.7153 L403.9618 -95.2392 Z"/>
      </g>
    </g>
    <g id="y.edge.9">
      <g text-rendering="geometricPrecision" stroke-miterlimit="1.45" stroke-dasharray="6,2" shape-rendering="geometricPrecision" transform="matrix(1,0,0,1,558,327)" stroke-linecap="butt">
        <path fill="none" d="M170.0116 192.7169 L324.3401 188.5768"/>
        <path fill="white" d="M339.3347 188.1746 L323.1796 182.6058 L323.5014 194.6015 Z" stroke="none"/>
        <path stroke-dasharray="none" fill="none" d="M339.3347 188.1746 L323.1796 182.6058 L323.5014 194.6015 Z"/>
      </g>
    </g>
    <g id="y.edge.12">
      <g text-rendering="geometricPrecision" stroke-miterlimit="1.45" stroke-dasharray="6,2" shape-rendering="geometricPrecision" transform="matrix(1,0,0,1,558,327)" stroke-linecap="butt">
        <path fill="none" d="M-125.6434 196.6829 L-242.0816 196.6829"/>
        <path d="M-246.0816 196.6829 L-234.0816 202.6829 L-246.0816 196.6829 L-234.0816 190.6829 Z" stroke="none"/>
        <path fill="none" stroke-miterlimit="10" stroke-dasharray="none" d="M-246.0816 196.6829 L-234.0816 202.6829 L-246.0816 196.6829 L-234.0816 190.6829 Z" stroke-linecap="square"/>
      </g>
    </g>
    <g id="y.edge.2">
      <g text-rendering="geometricPrecision" stroke-miterlimit="1.45" shape-rendering="geometricPrecision" transform="matrix(1,0,0,1,558,327)" stroke-linecap="butt">
        <path fill="none" d="M22.1722 -91.0115 L22.1722 -134.0496"/>
        <path d="M22.1722 -84.0115 L17.1722 -91.0115 L22.1722 -98.0115 L27.1722 -91.0115 Z" stroke="none"/>
      </g>
      <g>
        <g text-rendering="geometricPrecision" stroke-miterlimit="1.45" shape-rendering="geometricPrecision" font-family="sans-serif" transform="matrix(1,0,0,1,558,327)" stroke-linecap="butt">
          <text x="10.5375" xml:space="preserve" y="-98.9738" stroke="none">1</text>
        </g>
      </g>
    </g>
    <g id="y.edge.4">
      <g text-rendering="geometricPrecision" stroke-miterlimit="1.45" stroke-dasharray="6,2" shape-rendering="geometricPrecision" transform="matrix(1,0,0,1,558,327)" stroke-linecap="butt">
        <path fill="none" d="M169.9826 -210.9193 L369.6057 -210.9193"/>
        <path fill="white" d="M384.6057 -210.9193 L368.6057 -216.9193 L368.6057 -204.9193 Z" stroke="none"/>
        <path stroke-dasharray="none" fill="none" d="M384.6057 -210.9193 L368.6057 -216.9193 L368.6057 -204.9193 Z"/>
      </g>
    </g>
    <g id="y.edge.5">
      <g text-rendering="geometricPrecision" stroke-miterlimit="1.45" stroke-dasharray="6,2" shape-rendering="geometricPrecision" transform="matrix(1,0,0,1,558,327)" stroke-linecap="butt">
        <path fill="none" d="M160.0271 -134.0048 L425.6916 82.0209"/>
        <path fill="white" d="M437.3296 91.4843 L428.7011 76.7348 L421.1304 86.0452 Z" stroke="none"/>
        <path stroke-dasharray="none" fill="none" d="M437.3296 91.4843 L428.7011 76.7348 L421.1304 86.0452 Z"/>
      </g>
    </g>
    <g id="y.edge.10">
      <g text-rendering="geometricPrecision" stroke-miterlimit="1.45" stroke-dasharray="6,2" shape-rendering="geometricPrecision" transform="matrix(1,0,0,1,558,327)" stroke-linecap="butt">
        <path fill="none" d="M-125.6434 -210.9193 L-242.0816 -210.9193"/>
        <path d="M-246.0816 -210.9193 L-234.0816 -204.9193 L-246.0816 -210.9193 L-234.0816 -216.9193 Z" stroke="none"/>
        <path fill="none" stroke-miterlimit="10" stroke-dasharray="none" d="M-246.0816 -210.9193 L-234.0816 -204.9193 L-246.0816 -210.9193 L-234.0816 -216.9193 Z" stroke-linecap="square"/>
      </g>
    </g>
    <g visibility="hidden" id="tooltip.y.node.0" pointer-events="none">
      <g fill="rgb(195,212,232)" text-rendering="geometricPrecision" shape-rendering="geometricPrecision" font-family="sans-serif" stroke="rgb(195,212,232)">
        <rect x="0" width="66" height="17" y="0" clip-path="url(#clipPath12)" stroke="none"/>
        <text fill="black" x="4" xml:space="preserve" y="13" clip-path="url(#clipPath12)" stroke="none">UMLClass</text>
      </g>
      <g fill="rgb(49,106,196)" text-rendering="geometricPrecision" shape-rendering="geometricPrecision" font-family="sans-serif" stroke="rgb(49,106,196)">
        <path d="M0 0 L66 0 L66 17 L0 17 L0 0 ZM1 1 L65 1 L65 16 L1 16 L1 1 Z" fill-rule="evenodd" clip-path="url(#clipPath12)" stroke="none"/>
      </g>
    </g>
    <g visibility="hidden" id="tooltip.y.node.1" pointer-events="none">
      <g fill="rgb(195,212,232)" text-rendering="geometricPrecision" shape-rendering="geometricPrecision" font-family="sans-serif" stroke="rgb(195,212,232)">
        <rect x="0" width="66" height="17" y="0" clip-path="url(#clipPath12)" stroke="none"/>
        <text fill="black" x="4" xml:space="preserve" y="13" clip-path="url(#clipPath12)" stroke="none">UMLClass</text>
      </g>
      <g fill="rgb(49,106,196)" text-rendering="geometricPrecision" shape-rendering="geometricPrecision" font-family="sans-serif" stroke="rgb(49,106,196)">
        <path d="M0 0 L66 0 L66 17 L0 17 L0 0 ZM1 1 L65 1 L65 16 L1 16 L1 1 Z" fill-rule="evenodd" clip-path="url(#clipPath12)" stroke="none"/>
      </g>
    </g>
    <g visibility="hidden" id="tooltip.y.node.2" pointer-events="none">
      <g fill="rgb(195,212,232)" text-rendering="geometricPrecision" shape-rendering="geometricPrecision" font-family="sans-serif" stroke="rgb(195,212,232)">
        <rect x="0" width="66" height="17" y="0" clip-path="url(#clipPath12)" stroke="none"/>
        <text fill="black" x="4" xml:space="preserve" y="13" clip-path="url(#clipPath12)" stroke="none">UMLClass</text>
      </g>
      <g fill="rgb(49,106,196)" text-rendering="geometricPrecision" shape-rendering="geometricPrecision" font-family="sans-serif" stroke="rgb(49,106,196)">
        <path d="M0 0 L66 0 L66 17 L0 17 L0 0 ZM1 1 L65 1 L65 16 L1 16 L1 1 Z" fill-rule="evenodd" clip-path="url(#clipPath12)" stroke="none"/>
      </g>
    </g>
    <g visibility="hidden" id="tooltip.y.node.3" pointer-events="none">
      <g fill="rgb(195,212,232)" text-rendering="geometricPrecision" shape-rendering="geometricPrecision" font-family="sans-serif" stroke="rgb(195,212,232)">
        <rect x="0" width="66" height="17" y="0" clip-path="url(#clipPath12)" stroke="none"/>
        <text fill="black" x="4" xml:space="preserve" y="13" clip-path="url(#clipPath12)" stroke="none">UMLClass</text>
      </g>
      <g fill="rgb(49,106,196)" text-rendering="geometricPrecision" shape-rendering="geometricPrecision" font-family="sans-serif" stroke="rgb(49,106,196)">
        <path d="M0 0 L66 0 L66 17 L0 17 L0 0 ZM1 1 L65 1 L65 16 L1 16 L1 1 Z" fill-rule="evenodd" clip-path="url(#clipPath12)" stroke="none"/>
      </g>
    </g>
    <g visibility="hidden" id="tooltip.y.node.4" pointer-events="none">
      <g fill="rgb(195,212,232)" text-rendering="geometricPrecision" shape-rendering="geometricPrecision" font-family="sans-serif" stroke="rgb(195,212,232)">
        <rect x="0" width="66" height="17" y="0" clip-path="url(#clipPath12)" stroke="none"/>
        <text fill="black" x="4" xml:space="preserve" y="13" clip-path="url(#clipPath12)" stroke="none">UMLClass</text>
      </g>
      <g fill="rgb(49,106,196)" text-rendering="geometricPrecision" shape-rendering="geometricPrecision" font-family="sans-serif" stroke="rgb(49,106,196)">
        <path d="M0 0 L66 0 L66 17 L0 17 L0 0 ZM1 1 L65 1 L65 16 L1 16 L1 1 Z" fill-rule="evenodd" clip-path="url(#clipPath12)" stroke="none"/>
      </g>
    </g>
    <g visibility="hidden" id="tooltip.y.node.5" pointer-events="none">
      <g fill="rgb(195,212,232)" text-rendering="geometricPrecision" shape-rendering="geometricPrecision" font-family="sans-serif" stroke="rgb(195,212,232)">
        <rect x="0" width="66" height="17" y="0" clip-path="url(#clipPath12)" stroke="none"/>
        <text fill="black" x="4" xml:space="preserve" y="13" clip-path="url(#clipPath12)" stroke="none">UMLClass</text>
      </g>
      <g fill="rgb(49,106,196)" text-rendering="geometricPrecision" shape-rendering="geometricPrecision" font-family="sans-serif" stroke="rgb(49,106,196)">
        <path d="M0 0 L66 0 L66 17 L0 17 L0 0 ZM1 1 L65 1 L65 16 L1 16 L1 1 Z" fill-rule="evenodd" clip-path="url(#clipPath12)" stroke="none"/>
      </g>
    </g>
    <g visibility="hidden" id="tooltip.y.node.6" pointer-events="none">
      <g fill="rgb(195,212,232)" text-rendering="geometricPrecision" shape-rendering="geometricPrecision" font-family="sans-serif" stroke="rgb(195,212,232)">
        <rect x="0" width="66" height="17" y="0" clip-path="url(#clipPath12)" stroke="none"/>
        <text fill="black" x="4" xml:space="preserve" y="13" clip-path="url(#clipPath12)" stroke="none">UMLClass</text>
      </g>
      <g fill="rgb(49,106,196)" text-rendering="geometricPrecision" shape-rendering="geometricPrecision" font-family="sans-serif" stroke="rgb(49,106,196)">
        <path d="M0 0 L66 0 L66 17 L0 17 L0 0 ZM1 1 L65 1 L65 16 L1 16 L1 1 Z" fill-rule="evenodd" clip-path="url(#clipPath12)" stroke="none"/>
      </g>
    </g>
    <g visibility="hidden" id="tooltip.y.node.7" pointer-events="none">
      <g fill="rgb(195,212,232)" text-rendering="geometricPrecision" shape-rendering="geometricPrecision" font-family="sans-serif" stroke="rgb(195,212,232)">
        <rect x="0" width="66" height="17" y="0" clip-path="url(#clipPath12)" stroke="none"/>
        <text fill="black" x="4" xml:space="preserve" y="13" clip-path="url(#clipPath12)" stroke="none">UMLClass</text>
      </g>
      <g fill="rgb(49,106,196)" text-rendering="geometricPrecision" shape-rendering="geometricPrecision" font-family="sans-serif" stroke="rgb(49,106,196)">
        <path d="M0 0 L66 0 L66 17 L0 17 L0 0 ZM1 1 L65 1 L65 16 L1 16 L1 1 Z" fill-rule="evenodd" clip-path="url(#clipPath12)" stroke="none"/>
      </g>
    </g>
    <g visibility="hidden" id="tooltip.y.node.8" pointer-events="none">
      <g fill="rgb(195,212,232)" text-rendering="geometricPrecision" shape-rendering="geometricPrecision" font-family="sans-serif" stroke="rgb(195,212,232)">
        <rect x="0" width="66" height="17" y="0" clip-path="url(#clipPath12)" stroke="none"/>
        <text fill="black" x="4" xml:space="preserve" y="13" clip-path="url(#clipPath12)" stroke="none">UMLClass</text>
      </g>
      <g fill="rgb(49,106,196)" text-rendering="geometricPrecision" shape-rendering="geometricPrecision" font-family="sans-serif" stroke="rgb(49,106,196)">
        <path d="M0 0 L66 0 L66 17 L0 17 L0 0 ZM1 1 L65 1 L65 16 L1 16 L1 1 Z" fill-rule="evenodd" clip-path="url(#clipPath12)" stroke="none"/>
      </g>
    </g>
  </g>
</svg>
