<?xml version="1.0" encoding="UTF-8"?><svg xmlns="http://www.w3.org/2000/svg" xmlns:xlink="http://www.w3.org/1999/xlink" fill-opacity="1" color-rendering="auto" color-interpolation="auto" text-rendering="auto" stroke="black" stroke-linecap="square" width="948" stroke-miterlimit="10" shape-rendering="auto" stroke-opacity="1" fill="black" stroke-dasharray="none" font-weight="normal" stroke-width="1" height="476" font-family="'Dialog'" font-style="normal" stroke-linejoin="miter" font-size="12px" stroke-dashoffset="0" image-rendering="auto">
  <!--Generated by ySVG 2.6-->
  <defs id="genericDefs"/>
  <g>
    <defs id="defs1">
      <clipPath clipPathUnits="userSpaceOnUse" id="clipPath1">
        <path d="M0 0 L948 0 L948 476 L0 476 L0 0 Z"/>
      </clipPath>
      <clipPath clipPathUnits="userSpaceOnUse" id="clipPath2">
        <path d="M286 266 L1234 266 L1234 742 L286 742 L286 266 Z"/>
      </clipPath>
      <clipPath clipPathUnits="userSpaceOnUse" id="clipPath3">
        <path d="M952 643 L952 726 L1218 726 L1218 643 Z"/>
      </clipPath>
      <clipPath clipPathUnits="userSpaceOnUse" id="clipPath4">
        <path d="M614 643 L614 726 L880 726 L880 643 Z"/>
      </clipPath>
      <clipPath clipPathUnits="userSpaceOnUse" id="clipPath5">
        <path d="M301 391 L301 726 L567 726 L567 391 Z"/>
      </clipPath>
      <clipPath clipPathUnits="userSpaceOnUse" id="clipPath6">
        <path d="M341 281 L341 342 L513 342 L513 281 Z"/>
      </clipPath>
      <clipPath clipPathUnits="userSpaceOnUse" id="clipPath7">
        <path d="M822 355 L822 581 L1202 581 L1202 355 Z"/>
      </clipPath>
      <clipPath clipPathUnits="userSpaceOnUse" id="clipPath8">
        <path d="M586 281 L586 342 L758 342 L758 281 Z"/>
      </clipPath>
    </defs>
    <g fill="white" text-rendering="geometricPrecision" shape-rendering="geometricPrecision" transform="translate(-286,-266)" stroke="white">
      <rect x="286" width="948" height="476" y="266" clip-path="url(#clipPath2)" stroke="none"/>
    </g>
    <g fill="rgb(255,204,0)" text-rendering="geometricPrecision" shape-rendering="geometricPrecision" transform="matrix(1,0,0,1,-286,-266)" stroke="rgb(255,204,0)">
      <rect x="953" width="264" height="81" y="644" clip-path="url(#clipPath2)" stroke="none"/>
      <rect x="952" y="643" clip-path="url(#clipPath2)" fill="yellow" width="1" height="83" stroke="none"/>
      <rect x="953" y="643" clip-path="url(#clipPath2)" fill="yellow" width="264" height="1" stroke="none"/>
      <rect x="953" y="725" clip-path="url(#clipPath2)" fill="rgb(178,142,0)" width="265" height="1" stroke="none"/>
      <rect x="1217" y="643" clip-path="url(#clipPath2)" fill="rgb(178,142,0)" width="1" height="82" stroke="none"/>
    </g>
    <g font-size="13px" stroke-linecap="butt" transform="matrix(1,0,0,1,-286,-266)" text-rendering="geometricPrecision" font-family="sans-serif" shape-rendering="geometricPrecision" font-weight="bold" stroke-miterlimit="1.45">
      <text x="1016.9539" xml:space="preserve" y="662.137" clip-path="url(#clipPath3)" stroke="none">EntityManager&lt;D, V&gt;</text>
    </g>
    <g text-rendering="geometricPrecision" shape-rendering="geometricPrecision" transform="matrix(1,0,0,1,-286,-266)">
      <line y2="670" fill="none" x1="953" clip-path="url(#clipPath3)" x2="1217" y1="670"/>
      <line y2="680" fill="none" x1="953" clip-path="url(#clipPath3)" x2="1217" y1="680"/>
      <text stroke-linecap="butt" x="957.36" y="698.7741" clip-path="url(#clipPath3)" font-family="sans-serif" stroke="none" stroke-miterlimit="1.45" xml:space="preserve">crud(connection: Connection) : Crud&lt;D, V&gt;</text>
      <rect x="615" y="644" clip-path="url(#clipPath2)" fill="rgb(255,204,0)" width="264" height="81" stroke="none"/>
      <rect x="614" y="643" clip-path="url(#clipPath2)" fill="yellow" width="1" height="83" stroke="none"/>
      <rect x="615" y="643" clip-path="url(#clipPath2)" fill="yellow" width="264" height="1" stroke="none"/>
      <rect x="615" y="725" clip-path="url(#clipPath2)" fill="rgb(178,142,0)" width="265" height="1" stroke="none"/>
      <rect x="879" y="643" clip-path="url(#clipPath2)" fill="rgb(178,142,0)" width="1" height="82" stroke="none"/>
    </g>
    <g font-size="13px" stroke-linecap="butt" transform="matrix(1,0,0,1,-286,-266)" text-rendering="geometricPrecision" font-family="sans-serif" shape-rendering="geometricPrecision" font-weight="bold" stroke-miterlimit="1.45">
      <text x="679.757" xml:space="preserve" y="662.137" clip-path="url(#clipPath4)" stroke="none">ResultSetMapper&lt;D&gt;</text>
    </g>
    <g text-rendering="geometricPrecision" shape-rendering="geometricPrecision" transform="matrix(1,0,0,1,-286,-266)">
      <line y2="670" fill="none" x1="615" clip-path="url(#clipPath4)" x2="879" y1="670"/>
      <line y2="680" fill="none" x1="615" clip-path="url(#clipPath4)" x2="879" y1="680"/>
      <text stroke-linecap="butt" x="619.76" y="698.7741" clip-path="url(#clipPath4)" font-family="sans-serif" stroke="none" stroke-miterlimit="1.45" xml:space="preserve">map(resultSet: ResultSet, </text>
      <text stroke-linecap="butt" x="619.76" y="715.1182" clip-path="url(#clipPath4)" font-family="sans-serif" stroke="none" stroke-miterlimit="1.45" xml:space="preserve">    columnLabels: CharSequence[*]): D</text>
      <rect x="302" y="392" clip-path="url(#clipPath2)" fill="rgb(255,204,0)" width="264" height="333" stroke="none"/>
      <rect x="301" y="391" clip-path="url(#clipPath2)" fill="yellow" width="1" height="335" stroke="none"/>
      <rect x="302" y="391" clip-path="url(#clipPath2)" fill="yellow" width="264" height="1" stroke="none"/>
      <rect x="302" y="725" clip-path="url(#clipPath2)" fill="rgb(178,142,0)" width="265" height="1" stroke="none"/>
      <rect x="566" y="391" clip-path="url(#clipPath2)" fill="rgb(178,142,0)" width="1" height="334" stroke="none"/>
    </g>
    <g font-size="13px" stroke-linecap="butt" transform="matrix(1,0,0,1,-286,-266)" text-rendering="geometricPrecision" font-family="sans-serif" shape-rendering="geometricPrecision" font-weight="bold" stroke-miterlimit="1.45">
      <text x="379.703" xml:space="preserve" y="409.977" clip-path="url(#clipPath5)" stroke="none">SqlParamBuilder</text>
    </g>
    <g text-rendering="geometricPrecision" shape-rendering="geometricPrecision" transform="matrix(1,0,0,1,-286,-266)">
      <line y2="418" fill="none" x1="302" clip-path="url(#clipPath5)" x2="566" y1="418"/>
      <line y2="428" fill="none" x1="302" clip-path="url(#clipPath5)" x2="566" y1="428"/>
      <text stroke-linecap="butt" x="306.16" y="446.6141" clip-path="url(#clipPath5)" font-family="sans-serif" stroke="none" stroke-miterlimit="1.45" xml:space="preserve">sql(sqlLines: String[*])</text>
      <text stroke-linecap="butt" x="306.16" y="462.9582" clip-path="url(#clipPath5)" font-family="sans-serif" stroke="none" stroke-miterlimit="1.45" xml:space="preserve">    : SqlParamBuilder</text>
      <text stroke-linecap="butt" x="306.16" y="479.3023" clip-path="url(#clipPath5)" font-family="sans-serif" stroke="none" stroke-miterlimit="1.45" xml:space="preserve">bind(key: String, values: Boolean[*])</text>
      <text stroke-linecap="butt" x="306.16" y="495.6465" clip-path="url(#clipPath5)" font-family="sans-serif" stroke="none" stroke-miterlimit="1.45" xml:space="preserve">    : SqlParamBuilder</text>
      <text stroke-linecap="butt" x="306.16" y="511.9906" clip-path="url(#clipPath5)" font-family="sans-serif" stroke="none" stroke-miterlimit="1.45" xml:space="preserve">bind(key: String, values: Integer[*])</text>
      <text stroke-linecap="butt" x="306.16" y="528.3347" clip-path="url(#clipPath5)" font-family="sans-serif" stroke="none" stroke-miterlimit="1.45" xml:space="preserve">    : SqlParamBuilder</text>
      <text stroke-linecap="butt" x="306.16" y="544.6788" clip-path="url(#clipPath5)" font-family="sans-serif" stroke="none" stroke-miterlimit="1.45" xml:space="preserve">bind(key: String, values: String[*])</text>
      <text stroke-linecap="butt" x="306.16" y="561.0229" clip-path="url(#clipPath5)" font-family="sans-serif" stroke="none" stroke-miterlimit="1.45" xml:space="preserve">    : SqlParamBuilder</text>
      <text stroke-linecap="butt" x="306.16" y="577.367" clip-path="url(#clipPath5)" font-family="sans-serif" stroke="none" stroke-miterlimit="1.45" xml:space="preserve">label(placeholder: String, label: Key[*])</text>
      <text stroke-linecap="butt" x="306.16" y="593.7111" clip-path="url(#clipPath5)" font-family="sans-serif" stroke="none" stroke-miterlimit="1.45" xml:space="preserve">    : SqlParamBuilder</text>
      <text stroke-linecap="butt" x="306.16" y="610.0552" clip-path="url(#clipPath5)" font-family="sans-serif" stroke="none" stroke-miterlimit="1.45" xml:space="preserve">forEach(consumer: SqlConsumer)</text>
      <text stroke-linecap="butt" x="306.16" y="626.3994" clip-path="url(#clipPath5)" font-family="sans-serif" stroke="none" stroke-miterlimit="1.45" xml:space="preserve">    : void</text>
      <text stroke-linecap="butt" x="306.16" y="642.7435" clip-path="url(#clipPath5)" font-family="sans-serif" stroke="none" stroke-miterlimit="1.45" xml:space="preserve">streamMap(mapper: SqlFunction)</text>
      <text stroke-linecap="butt" x="306.16" y="659.0876" clip-path="url(#clipPath5)" font-family="sans-serif" stroke="none" stroke-miterlimit="1.45" xml:space="preserve">    : Stream&lt;ResultSet&gt;</text>
      <text stroke-linecap="butt" x="306.16" y="675.4317" clip-path="url(#clipPath5)" font-family="sans-serif" stroke="none" stroke-miterlimit="1.45" xml:space="preserve">«static» &lt;R&gt; run(connection: Connection, </text>
      <text stroke-linecap="butt" x="306.16" y="691.7758" clip-path="url(#clipPath5)" font-family="sans-serif" stroke="none" stroke-miterlimit="1.45" xml:space="preserve">    fun: SqlFunction&lt;SqlParamBuilder, R&gt;) : R</text>
      <text stroke-linecap="butt" x="306.16" y="708.1199" clip-path="url(#clipPath5)" font-family="sans-serif" stroke="none" stroke-miterlimit="1.45" xml:space="preserve">execute(): int</text>
      <rect x="342" y="282" clip-path="url(#clipPath2)" fill="rgb(255,255,153)" width="170" height="59" stroke="none"/>
      <rect x="341" y="281" clip-path="url(#clipPath2)" fill="rgb(255,255,218)" width="1" height="61" stroke="none"/>
      <rect x="342" y="281" clip-path="url(#clipPath2)" fill="rgb(255,255,218)" width="170" height="1" stroke="none"/>
      <rect x="342" y="341" clip-path="url(#clipPath2)" fill="rgb(178,178,107)" width="171" height="1" stroke="none"/>
      <rect x="512" y="281" clip-path="url(#clipPath2)" fill="rgb(178,178,107)" width="1" height="60" stroke="none"/>
      <text stroke-linecap="butt" x="388.9537" y="299.6481" clip-path="url(#clipPath6)" font-family="sans-serif" stroke="none" stroke-miterlimit="1.45" xml:space="preserve">&lt;&lt;interface&gt;&gt;</text>
    </g>
    <g font-size="13px" stroke-linecap="butt" transform="matrix(1,0,0,1,-286,-266)" text-rendering="geometricPrecision" font-family="sans-serif" shape-rendering="geometricPrecision" font-weight="bold" stroke-miterlimit="1.45">
      <text x="380.977" xml:space="preserve" y="326.0611" clip-path="url(#clipPath6)" stroke="none">AutoCloseable</text>
    </g>
    <g fill="rgb(255,204,0)" text-rendering="geometricPrecision" shape-rendering="geometricPrecision" transform="matrix(1,0,0,1,-286,-266)" stroke="rgb(255,204,0)">
      <rect x="823" width="378" height="224" y="356" clip-path="url(#clipPath2)" stroke="none"/>
      <rect x="822" y="355" clip-path="url(#clipPath2)" fill="yellow" width="1" height="226" stroke="none"/>
      <rect x="823" y="355" clip-path="url(#clipPath2)" fill="yellow" width="378" height="1" stroke="none"/>
      <rect x="823" y="580" clip-path="url(#clipPath2)" fill="rgb(178,142,0)" width="379" height="1" stroke="none"/>
      <rect x="1201" y="355" clip-path="url(#clipPath2)" fill="rgb(178,142,0)" width="1" height="225" stroke="none"/>
    </g>
    <g font-size="13px" stroke-linecap="butt" transform="matrix(1,0,0,1,-286,-266)" text-rendering="geometricPrecision" font-family="sans-serif" shape-rendering="geometricPrecision" font-weight="bold" stroke-miterlimit="1.45">
      <text x="978.56" xml:space="preserve" y="374.057" clip-path="url(#clipPath7)" stroke="none">Crud&lt;D,V&gt;</text>
    </g>
    <g text-rendering="geometricPrecision" shape-rendering="geometricPrecision" transform="matrix(1,0,0,1,-286,-266)">
      <line y2="382" fill="none" x1="823" clip-path="url(#clipPath7)" x2="1201" y1="382"/>
      <line y2="392" fill="none" x1="823" clip-path="url(#clipPath7)" x2="1201" y1="392"/>
      <text stroke-linecap="butt" x="827.36" y="410.6941" clip-path="url(#clipPath7)" font-family="sans-serif" stroke="none" stroke-miterlimit="1.45" xml:space="preserve">findById(id: V) : Optional&lt;D&gt;</text>
      <text stroke-linecap="butt" x="827.36" y="427.0382" clip-path="url(#clipPath7)" font-family="sans-serif" stroke="none" stroke-miterlimit="1.45" xml:space="preserve">selectWhere( whereCondition: String, fun: SqlFunction ) : R</text>
      <text stroke-linecap="butt" x="827.36" y="443.3823" clip-path="url(#clipPath7)" font-family="sans-serif" stroke="none" stroke-miterlimit="1.45" xml:space="preserve">insert(domain: D) : D</text>
      <text stroke-linecap="butt" x="827.36" y="459.7264" clip-path="url(#clipPath7)" font-family="sans-serif" stroke="none" stroke-miterlimit="1.45" xml:space="preserve">insert(domains: Stream&lt;D&gt;, onInserted: Consumer&lt;D&gt;) : long</text>
      <text stroke-linecap="butt" x="827.36" y="476.0706" clip-path="url(#clipPath7)" font-family="sans-serif" stroke="none" stroke-miterlimit="1.45" xml:space="preserve">insertOrUpdate( domains: Stream&lt;D&gt;,</text>
      <text stroke-linecap="butt" x="827.36" y="492.4147" clip-path="url(#clipPath7)" font-family="sans-serif" stroke="none" stroke-miterlimit="1.45" xml:space="preserve">    onInserted: Consumer&lt;D&gt;,</text>
      <text stroke-linecap="butt" x="827.36" y="508.7588" clip-path="url(#clipPath7)" font-family="sans-serif" stroke="none" stroke-miterlimit="1.45" xml:space="preserve">    properties: CharSequence[*] ) : long</text>
      <text stroke-linecap="butt" x="827.36" y="525.1029" clip-path="url(#clipPath7)" font-family="sans-serif" stroke="none" stroke-miterlimit="1.45" xml:space="preserve">update( domains: Stream&lt;D&gt;, properties: CharSequence[*] )</text>
      <text stroke-linecap="butt" x="827.36" y="541.447" clip-path="url(#clipPath7)" font-family="sans-serif" stroke="none" stroke-miterlimit="1.45" xml:space="preserve">    : long</text>
      <text stroke-linecap="butt" x="827.36" y="557.7911" clip-path="url(#clipPath7)" font-family="sans-serif" stroke="none" stroke-miterlimit="1.45" xml:space="preserve">delete(domains: Stream&lt;D&gt;) : int</text>
      <rect x="587" y="282" clip-path="url(#clipPath2)" fill="rgb(255,255,153)" width="170" height="59" stroke="none"/>
      <rect x="586" y="281" clip-path="url(#clipPath2)" fill="rgb(255,255,218)" width="1" height="61" stroke="none"/>
      <rect x="587" y="281" clip-path="url(#clipPath2)" fill="rgb(255,255,218)" width="170" height="1" stroke="none"/>
      <rect x="587" y="341" clip-path="url(#clipPath2)" fill="rgb(178,178,107)" width="171" height="1" stroke="none"/>
      <rect x="757" y="281" clip-path="url(#clipPath2)" fill="rgb(178,178,107)" width="1" height="60" stroke="none"/>
      <text stroke-linecap="butt" x="634.0537" y="299.6481" clip-path="url(#clipPath8)" font-family="sans-serif" stroke="none" stroke-miterlimit="1.45" xml:space="preserve">&lt;&lt;interface&gt;&gt;</text>
    </g>
    <g font-size="13px" stroke-linecap="butt" transform="matrix(1,0,0,1,-286,-266)" text-rendering="geometricPrecision" font-family="sans-serif" shape-rendering="geometricPrecision" font-weight="bold" stroke-miterlimit="1.45">
      <text x="635.775" xml:space="preserve" y="326.0611" clip-path="url(#clipPath8)" stroke="none">Connection</text>
      <path fill="none" d="M945.3723 684.74 L880.788 684.74" clip-path="url(#clipPath2)"/>
      <path d="M952.3723 684.74 L945.3723 689.74 L938.3723 684.74 L945.3723 679.74 Z" stroke="none" clip-path="url(#clipPath2)"/>
    </g>
    <g text-rendering="geometricPrecision" stroke-miterlimit="1.45" stroke-dasharray="6,2" shape-rendering="geometricPrecision" transform="matrix(1,0,0,1,-286,-266)" stroke-linecap="butt">
      <path fill="none" d="M429.7333 391.0721 L428.869 358.3507" clip-path="url(#clipPath2)"/>
      <path fill="white" d="M428.4729 343.3559 L422.8975 359.5088 L434.8933 359.1919 Z" clip-path="url(#clipPath2)" stroke="none"/>
      <path fill="none" stroke-dasharray="none" d="M428.4729 343.3559 L422.8975 359.5088 L434.8933 359.1919 Z" clip-path="url(#clipPath2)"/>
      <path fill="none" d="M1071.3784 643.2588 L1052.0394 585.883" clip-path="url(#clipPath2)"/>
      <path d="M1050.7618 582.0925 L1048.9088 595.3803 L1050.7618 582.0925 L1060.2803 591.5477 Z" clip-path="url(#clipPath2)" stroke="none"/>
      <path fill="none" stroke-miterlimit="10" stroke-dasharray="none" d="M1050.7618 582.0925 L1048.9088 595.3803 L1050.7618 582.0925 L1060.2803 591.5477 Z" clip-path="url(#clipPath2)" stroke-linecap="square"/>
      <text x="1016.038" y="627.599" clip-path="url(#clipPath2)" font-family="sans-serif" stroke-dasharray="none" stroke="none" xml:space="preserve">creates</text>
      <path fill="none" d="M822.3384 509.0933 L572.1296 541.0426" clip-path="url(#clipPath2)"/>
      <path d="M568.1618 541.5493 L580.8251 545.981 L568.1618 541.5493 L579.3052 534.0776 Z" clip-path="url(#clipPath2)" stroke="none"/>
      <path fill="none" stroke-miterlimit="10" stroke-dasharray="none" d="M568.1618 541.5493 L580.8251 545.981 L568.1618 541.5493 L579.3052 534.0776 Z" clip-path="url(#clipPath2)" stroke-linecap="square"/>
      <text x="674.2278" y="514.9907" clip-path="url(#clipPath2)" font-family="sans-serif" stroke-dasharray="none" stroke="none" xml:space="preserve">creates</text>
      <path fill="none" stroke-dasharray="none" d="M838.0677 586.2919 L785.8362 643.2316" clip-path="url(#clipPath2)"/>
      <path stroke-dasharray="none" d="M842.7996 581.1334 L841.7524 589.6718 L833.3359 591.4503 L834.3832 582.912 Z" clip-path="url(#clipPath2)" stroke="none"/>
      <path fill="none" stroke-dasharray="none" d="M572.0511 416.4461 L642.9363 343.3387" clip-path="url(#clipPath2)"/>
      <path stroke-dasharray="none" d="M567.1783 421.4716 L568.4614 412.9655 L576.9239 411.4205 L575.6408 419.9266 Z" clip-path="url(#clipPath2)" stroke="none"/>
      <path fill="none" stroke-dasharray="none" d="M816.0074 378.2055 L739.9317 343.3532" clip-path="url(#clipPath2)"/>
      <path stroke-dasharray="none" d="M822.3714 381.121 L813.9249 382.7512 L809.6435 375.29 L818.09 373.6599 Z" clip-path="url(#clipPath2)" stroke="none"/>
      <path fill="none" stroke-dasharray="none" d="M586.7416 312.58 L528.6868 312.58" clip-path="url(#clipPath2)"/>
      <path fill="white" stroke-dasharray="none" d="M513.6868 312.58 L529.6868 318.58 L529.6868 306.58 Z" clip-path="url(#clipPath2)" stroke="none"/>
      <path fill="none" stroke-dasharray="none" d="M513.6868 312.58 L529.6868 318.58 L529.6868 306.58 Z" clip-path="url(#clipPath2)"/>
    </g>
  </g>
</svg>
